<svg width="46" height="46" viewBox="0 0 46 46" fill="none" xmlns="http://www.w3.org/2000/svg">
<mask id="mask0" mask-type="alpha" maskUnits="userSpaceOnUse" x="0" y="0" width="46" height="46">
<circle cx="23" cy="23" r="23" fill="#34CC99"/>
</mask>
<g mask="url(#mask0)">
<circle cx="23" cy="23" r="23" fill="#34CC99"/>
<ellipse cx="22.5" cy="34" rx="10.5" ry="1" fill="#29AB7F"/>
</g>
<g clip-path="url(#clip0)">
<path d="M17.7074 14.1518C17.0474 14.1518 17.328 14.1395 16.3994 14.212C15.4181 14.2886 14.5178 14.7447 13.8781 15.4647C13.5308 15.8557 12.9911 16.0138 12.493 15.8547L12.0341 15.708C12.0341 15.708 11.7997 20.617 13.2162 21.2345H22.2735V18.7169C22.2735 16.1953 20.2289 14.1519 17.7074 14.1518Z" fill="#D77F4A"/>
<path d="M15.375 26.7174V26.716H13.9893C12.935 26.716 12.0803 27.5706 12.0803 28.625V31.799H22.2735V28.625C22.2735 27.5707 21.4189 26.716 20.3645 26.716H18.9787V26.7174H15.375V26.7174Z" fill="#3C87D0"/>
<path d="M15.3684 25.2778V26.7174C15.3684 27.7125 16.175 28.5192 17.1702 28.5192C18.1653 28.5192 18.972 27.7125 18.972 26.7174C18.972 26.2128 18.972 25.7653 18.972 25.2778H15.3684Z" fill="#FFB09E"/>
<path d="M15.3684 26.7174C15.3684 26.8007 15.3745 26.8825 15.3854 26.9629C15.932 27.2086 16.5393 27.3456 17.1789 27.3456C17.8113 27.3456 18.4121 27.2116 18.9539 26.9711C18.9656 26.8882 18.972 26.8036 18.972 26.7174C18.972 26.2128 18.972 25.7652 18.972 25.2778H15.3684V26.7174Z" fill="#FFA78F"/>
<path d="M15.0542 23.0346H12.8267C12.012 23.0346 11.3516 22.3742 11.3516 21.5595C11.3516 20.7448 12.012 20.0844 12.8267 20.0844H15.0542V23.0346Z" fill="#FFB09E"/>
<path d="M19.2995 20.0844H21.527C22.3417 20.0844 23.0022 20.7448 23.0022 21.5595C23.0022 22.3742 22.3417 23.0346 21.527 23.0346H19.2995V20.0844Z" fill="#FFA78F"/>
<path d="M12.8412 20.7468V22.3723C12.8412 24.7408 14.7833 26.6609 17.179 26.6609C19.5747 26.6609 21.5167 24.7408 21.5167 22.3723V20.7468C21.5167 18.3783 19.5747 16.4582 17.179 16.4582C14.7833 16.4582 12.8412 18.3783 12.8412 20.7468V20.7468Z" fill="#FFCEBF"/>
<path d="M14.639 23.8088H13.8853C13.6596 23.8088 13.4767 23.6259 13.4767 23.4002C13.4767 23.1745 13.6596 22.9916 13.8853 22.9916H14.639C14.8647 22.9916 15.0476 23.1745 15.0476 23.4002C15.0476 23.6259 14.8647 23.8088 14.639 23.8088Z" fill="#FE8F83"/>
<path d="M17.3254 16.4612C17.16 16.4659 16.9968 16.4789 16.8366 16.5014C18.9403 16.7973 20.5581 18.5851 20.5581 20.7468V22.3722C20.5581 24.5339 18.9404 26.3217 16.8366 26.6176C16.9968 26.6401 17.16 26.6532 17.3254 26.6578C19.6532 26.5814 21.5167 24.6923 21.5167 22.3722V20.7468C21.5167 18.4268 19.6532 16.5376 17.3254 16.4612V16.4612Z" fill="#FFB09E"/>
<path d="M17.8886 14.1566H17.1222C16.9975 14.1636 16.8263 14.1789 16.3994 14.2123C15.4506 14.2863 14.5776 14.7152 13.9426 15.3944V17.3C13.9426 18.8379 15.1894 20.0846 16.7273 20.0846H22.2735V18.717C22.2735 16.2563 20.3262 14.2513 17.8886 14.1566Z" fill="#D77F4A"/>
<path d="M17.8886 14.1566H17.1222C17.0172 14.1624 16.8785 14.1743 16.5825 14.1978C18.8003 14.5092 20.507 16.4133 20.507 18.717V20.0846H22.2735V18.717C22.2735 16.2563 20.3262 14.2513 17.8886 14.1566Z" fill="#C86D36"/>
<path d="M20.3645 26.716H18.9787V26.7174H18.9132C19.942 26.7466 20.7672 27.5892 20.7672 28.625V31.799H22.2735V28.625C22.2735 27.5707 21.4188 26.716 20.3645 26.716V26.716Z" fill="#0078C8"/>
<path d="M20.4551 23.8088H19.7015C19.4757 23.8088 19.2928 23.6259 19.2928 23.4002C19.2928 23.1745 19.4757 22.9916 19.7015 22.9916H20.4551C20.6808 22.9916 20.8637 23.1745 20.8637 23.4002C20.8637 23.6259 20.6808 23.8088 20.4551 23.8088Z" fill="#FE8F83"/>
<path d="M25.4716 26.9877H25.2843C24.2668 26.9877 23.442 27.8125 23.442 28.8299V31.8488H32.8375V28.8299C32.8375 27.8125 32.0127 26.9877 30.9953 26.9877H25.4716Z" fill="#F07281"/>
<path d="M30.9952 26.9877H29.4864C30.5038 26.9877 31.3286 27.8125 31.3286 28.8299V31.8488H32.8375V28.8299C32.8375 27.8125 32.0127 26.9877 30.9952 26.9877Z" fill="#EB5569"/>
<path d="M28.1336 28.9279C27.2474 28.9279 26.529 28.2095 26.529 27.3233V23.4618H29.7382V27.3233C29.7382 28.2095 29.0198 28.9279 28.1336 28.9279V28.9279Z" fill="#FFB09E"/>
<path d="M26.529 27.0949C27.0176 27.3151 27.5602 27.4388 28.1324 27.4388C28.7055 27.4388 29.249 27.3147 29.7383 27.0937V23.4618H26.5291V27.0949H26.529Z" fill="#FFA78F"/>
<path d="M33.8465 27.4799H34.6484V25.2718C34.6484 23.9823 33.603 22.9369 32.3135 22.9369H31.5116V25.1449C31.5116 26.4345 32.557 27.4799 33.8465 27.4799V27.4799Z" fill="#5A5A5A"/>
<path d="M32.3135 22.9369H31.5116V23.004C32.5325 23.2535 33.2905 24.174 33.2905 25.2718V27.4128C33.4687 27.4563 33.6548 27.4799 33.8465 27.4799H34.6484V25.2718C34.6484 23.9823 33.603 22.9369 32.3135 22.9369V22.9369Z" fill="#444444"/>
<path d="M22.4088 27.4799H21.6069V25.2718C21.6069 23.9823 22.6523 22.9369 23.9419 22.9369H24.7438V25.1449C24.7438 26.4345 23.6984 27.4799 22.4088 27.4799V27.4799Z" fill="#5A5A5A"/>
<path d="M26.2434 23.4618H24.2546C23.5285 23.4618 22.9399 22.8732 22.9399 22.1471C22.9399 21.421 23.5285 20.8323 24.2546 20.8323H26.2434V23.4618Z" fill="#FFB09E"/>
<path d="M30.0119 20.8323H32.0008C32.7268 20.8323 33.3155 21.4209 33.3155 22.1471C33.3155 22.8731 32.7269 23.4618 32.0008 23.4618H30.0119V20.8323Z" fill="#FFA78F"/>
<path d="M28.1323 17.6061C25.9967 17.6061 24.2654 19.3161 24.2654 21.4253V21.6835V22.8711C24.2654 24.9804 25.9967 26.6903 28.1323 26.6903C30.268 26.6903 31.9993 24.9804 31.9993 22.8711V21.4253C31.9993 19.3161 30.268 17.6061 28.1323 17.6061V17.6061Z" fill="#FFCEBF"/>
<path d="M28.1323 17.6061C27.9287 17.6061 27.7287 17.6219 27.5336 17.6519C29.3849 17.9361 30.8018 19.5172 30.8018 21.4253V22.8712C30.8018 24.7793 29.3849 26.3604 27.5336 26.6446C27.7287 26.6746 27.9287 26.6904 28.1323 26.6904C30.268 26.6904 31.9993 24.9805 31.9993 22.8712V21.4253C31.9993 19.3161 30.268 17.6061 28.1323 17.6061Z" fill="#FFB09E"/>
<path d="M25.9659 24.2906H25.2298C25.0094 24.2906 24.8307 24.1119 24.8307 23.8915C24.8307 23.671 25.0094 23.4924 25.2298 23.4924H25.9659C26.1864 23.4924 26.365 23.671 26.365 23.8915C26.365 24.1119 26.1863 24.2906 25.9659 24.2906Z" fill="#FE8F83"/>
<path d="M31.0497 24.2906H30.3136C30.0931 24.2906 29.9145 24.1119 29.9145 23.8915C29.9145 23.671 30.0931 23.4924 30.3136 23.4924H31.0497C31.2701 23.4924 31.4487 23.671 31.4487 23.8915C31.4487 24.1119 31.2701 24.2906 31.0497 24.2906Z" fill="#FE8F83"/>
<path d="M28.5377 15.3762C28.3113 15.3762 28.1277 15.5597 28.1277 15.7861C28.1277 15.5597 27.9441 15.3762 27.7177 15.3762C25.2744 15.3762 23.2938 17.3568 23.2938 19.8001V20.8323H25.8753C27.1192 20.8323 28.1277 19.8239 28.1277 18.58C28.1277 19.8239 29.1362 20.8323 30.3801 20.8323H32.9616V19.8001C32.9616 17.3568 30.9809 15.3762 28.5377 15.3762V15.3762Z" fill="#5A5A5A"/>
<path d="M28.5377 15.3762C28.4202 15.3762 28.3146 15.4258 28.2399 15.5049C30.171 15.9801 31.6037 17.7223 31.6037 19.8001V20.8323H32.9616V19.8001C32.9616 17.3568 30.9809 15.3762 28.5377 15.3762V15.3762Z" fill="#444444"/>
<path d="M28.2899 25.0603C28.926 25.0603 29.4435 24.5428 29.4435 23.9068C29.4435 23.7126 29.2861 23.5552 29.0919 23.5552C28.8978 23.5552 28.7404 23.7126 28.7404 23.9068C28.7404 24.1552 28.5383 24.3572 28.2899 24.3572C28.0416 24.3572 27.8395 24.1551 27.8395 23.9068C27.8395 23.7126 27.6821 23.5552 27.488 23.5552C27.2938 23.5552 27.1364 23.7126 27.1364 23.9068C27.1363 24.5428 27.6538 25.0603 28.2899 25.0603Z" fill="black"/>
<path d="M30.1332 23.0883C30.3274 23.0883 30.4848 22.9309 30.4848 22.7367V22.3693C30.6583 22.3478 30.7927 22.1998 30.7927 22.0204C30.7927 21.8262 30.6353 21.6689 30.4412 21.6689H30.1332C29.939 21.6689 29.7816 21.8262 29.7816 22.0204V22.7367C29.7816 22.9309 29.939 23.0883 30.1332 23.0883Z" fill="black"/>
<path d="M26.0951 22.3694V22.7368C26.0951 22.931 26.2525 23.0883 26.4466 23.0883C26.6408 23.0883 26.7982 22.931 26.7982 22.7368V22.0205C26.7982 21.8263 26.6408 21.6689 26.4466 21.6689H26.1387C25.9445 21.6689 25.7871 21.8263 25.7871 22.0205C25.7871 22.1999 25.9215 22.3479 26.0951 22.3694V22.3694Z" fill="black"/>
<path d="M33.5443 22.7999C33.6441 22.5887 33.7002 22.353 33.7002 22.1044C33.7002 21.6906 33.5453 21.3126 33.2908 21.0244C33.3312 20.9671 33.3551 20.8975 33.3551 20.8221C33.3551 19.7837 33.407 19.1679 33.0946 18.2747C33.0305 18.0914 32.8299 17.9946 32.6466 18.0589C32.4634 18.123 32.3668 18.3236 32.4308 18.5068C32.6862 19.2367 32.6519 19.743 32.6519 20.4705C32.2035 20.4705 30.9955 20.4705 30.4862 20.4705C29.469 20.4705 28.6415 19.643 28.6414 18.6258C28.6414 18.4316 28.484 18.2742 28.2898 18.2742C28.0957 18.2742 27.9383 18.4316 27.9383 18.6258C27.9383 19.643 27.1107 20.4705 26.0935 20.4705H24.5659H23.9277V19.8156C23.9277 17.6307 25.7052 15.8532 27.8901 15.8532C27.9167 15.8532 27.9383 15.8748 27.9383 15.9014C27.9383 16.0956 28.0957 16.2529 28.2898 16.2529C28.484 16.2529 28.6414 16.0956 28.6414 15.9014C28.6414 15.8748 28.663 15.8532 28.6896 15.8532C29.835 15.8533 30.9239 16.3488 31.6773 17.2128C31.8049 17.3592 32.027 17.3743 32.1733 17.2468C32.3197 17.1192 32.3349 16.8971 32.2073 16.7508C31.3204 15.7336 30.0382 15.1502 28.6896 15.1501C28.5428 15.1501 28.4057 15.1925 28.2899 15.2655C28.1741 15.1925 28.037 15.1501 27.8901 15.1501C25.3176 15.1501 23.2247 17.2431 23.2247 19.8156V20.8221C23.2247 20.8975 23.2486 20.9672 23.289 21.0244C23.171 21.1581 23.0743 21.3109 23.0047 21.4779C22.9625 20.9594 22.7009 20.5041 22.3104 20.2063V18.8669C22.3104 16.2299 20.1651 14.0846 17.5281 14.0846C16.8733 14.0846 17.1357 14.0733 16.2301 14.1441C14.9809 14.2416 13.8629 14.9101 13.1862 15.9501L12.1275 15.6117C11.9081 15.5413 11.6803 15.6986 11.6693 15.9298C11.6643 16.0357 11.5582 18.39 11.9875 20.0299C11.4026 20.3232 11 20.9283 11 21.626C11 22.5314 11.6776 23.2815 12.5524 23.3958C12.7725 24.3404 13.2927 25.1979 14.0367 25.8338C14.2318 26.0006 14.44 26.149 14.6579 26.2794H13.9182C12.7026 26.2794 11.7138 27.2683 11.7138 28.4838V31.5645C11.7138 31.7587 11.8712 31.9161 12.0653 31.9161H12.6493C12.8435 31.9161 13.0009 31.7587 13.0009 31.5645C13.0009 31.3703 12.8435 31.213 12.6493 31.213H12.4169V28.4838C12.4169 27.656 13.0903 26.9825 13.9182 26.9825H14.9409C15.1156 28.0191 16.0531 28.7985 17.1483 28.7278C18.1398 28.6639 18.9253 27.9179 19.0831 26.9825H20.106C20.9338 26.9825 21.6073 27.656 21.6073 28.4838V31.213H14.29C14.0959 31.213 13.9385 31.3703 13.9385 31.5645C13.9385 31.7587 14.0959 31.9161 14.29 31.9161H21.9589C22.1531 31.9161 22.3105 31.7587 22.3105 31.5645V28.4838C22.3105 28.191 22.2526 27.9117 22.1486 27.6559H22.7134C23.0671 27.6559 23.4044 27.5852 23.7127 27.458C23.4958 27.7934 23.3693 28.1925 23.3693 28.6207V31.5645C23.3693 31.7587 23.5267 31.9161 23.7209 31.9161H32.8826C33.0768 31.9161 33.2342 31.7587 33.2342 31.5645V28.6207C33.2342 28.1978 33.1108 27.8033 32.8988 27.4705C33.1985 27.5896 33.5248 27.6559 33.8666 27.6559H34.6484C34.8426 27.6559 35 27.4985 35 27.3043V25.1511C35 24.1496 34.4195 23.239 33.5443 22.7999V22.7999ZM26.0936 21.1737C27.028 21.1737 27.8465 20.6682 28.2899 19.9161C28.7334 20.6682 29.5519 21.1737 30.4863 21.1737H32.0663C32.5796 21.1737 32.9971 21.5912 32.9971 22.1044C32.9971 22.3554 32.8968 22.583 32.7348 22.7505C32.5497 22.9418 32.293 23.0449 32.029 23.0341C31.8512 23.0259 31.6967 23.1523 31.6674 23.3274C31.4 24.9264 30.0167 26.1828 28.2899 26.1828C27.07 26.1828 25.9304 25.5379 25.3172 24.4653C25.3115 24.4508 25.3049 24.4366 25.2973 24.4229C25.1541 24.1661 25.0456 23.8948 24.9731 23.6134C24.9717 23.6078 24.9705 23.6021 24.9691 23.5964C24.9491 23.5171 24.9301 23.433 24.9125 23.3273C24.8833 23.1527 24.728 23.026 24.5509 23.0341C24.0247 23.0555 23.5828 22.631 23.5828 22.1043C23.5828 21.5911 24.0004 21.1736 24.5135 21.1736C24.5263 21.1736 24.5391 21.1741 24.5518 21.1746C24.5668 21.1752 24.5816 21.1748 24.5962 21.1736H26.0936V21.1737ZM28.2957 28.3648C27.6268 28.3648 27.0826 27.8206 27.0826 27.1516V26.8243V26.7062C27.4816 26.8286 27.8983 26.886 28.2899 26.886C28.6944 26.886 29.1156 26.8246 29.5088 26.7027V27.1517C29.5088 27.7997 28.998 28.3307 28.358 28.3633C28.3374 28.3643 28.3166 28.3648 28.2957 28.3648V28.3648ZM25.5168 26.4728C25.5167 26.4728 25.5165 26.4728 25.5164 26.4728C25.2754 26.4729 25.0438 26.5135 24.8274 26.5871C25.0447 26.2933 25.202 25.9529 25.2819 25.5839C25.385 25.6937 25.4941 25.7987 25.6095 25.8973C25.8471 26.1004 26.1057 26.2741 26.3795 26.417V26.4728H25.5168ZM30.212 26.4112C30.6099 26.2019 30.974 25.9288 31.2979 25.5839C31.3768 25.9486 31.5316 26.2852 31.7449 26.5765C31.3435 26.4469 31.1341 26.4728 30.212 26.4728V26.4112H30.212ZM12.3601 16.4241L13.2371 16.7044C13.3969 16.7554 13.5706 16.6865 13.6518 16.5396C14.1905 15.5652 15.1748 14.9316 16.2848 14.8451C17.1687 14.7761 16.9007 14.7877 17.5281 14.7877C19.7773 14.7877 21.6073 16.6176 21.6073 18.8669V19.8824C21.3001 19.8163 21.3972 19.8426 16.5757 19.8426C16.2252 19.8426 15.8894 19.7647 15.5869 19.6241C14.9213 19.3146 14.4165 18.7013 14.2687 17.9456C14.2122 17.6569 13.8568 17.57 13.667 17.7729C13.1598 18.3151 12.8052 18.9573 12.6127 19.6238C12.371 18.5303 12.3515 17.1349 12.3601 16.4241V16.4241ZM13.1899 22.9998C13.1614 22.8298 13.0143 22.7062 12.8433 22.7062C12.8385 22.7062 12.8338 22.7063 12.829 22.7065C12.8143 22.7071 12.7996 22.7077 12.7848 22.7077C12.1884 22.7077 11.7031 22.2225 11.7031 21.626C11.7031 21.0396 12.1706 20.5656 12.7455 20.5453C12.7469 20.5453 12.7484 20.5453 12.7498 20.5453C12.776 20.5445 12.8021 20.5445 12.8281 20.5455C12.8287 20.5455 12.8292 20.5455 12.8298 20.5456C12.8309 20.5456 12.832 20.5455 12.833 20.5455C13.0084 20.551 13.1608 20.4257 13.1899 20.2523C13.2692 19.7778 13.4359 19.3264 13.6803 18.9171C13.7152 18.8587 13.7517 18.8011 13.7898 18.7444C14.2737 19.8192 15.3557 20.5458 16.5757 20.5458H21.277H21.2773C21.4479 20.5537 21.6257 20.6052 21.7789 20.6965C21.7816 20.6981 21.7845 20.6992 21.7873 20.7007C22.1005 20.8902 22.3081 21.2333 22.3081 21.626C22.3081 22.2224 21.8228 22.7076 21.2264 22.7076C21.2116 22.7076 21.1969 22.707 21.1822 22.7065C21.0053 22.7001 20.8505 22.8251 20.8213 22.9998C20.5027 24.905 18.8633 26.2258 17.0056 26.2258C15.1336 26.2258 13.5062 24.8914 13.1899 22.9998V22.9998ZM16.9415 28.0278C16.2536 27.9934 15.6927 27.4582 15.6223 26.7758C15.6218 26.7707 15.6215 26.7655 15.621 26.7604C15.6196 26.7452 15.6185 26.7299 15.6176 26.7146C16.0805 26.8623 16.5633 26.9289 17.0057 26.9289C17.4564 26.9289 17.943 26.86 18.4071 26.7102C18.3646 27.4759 17.7082 28.0661 16.9415 28.0278V28.0278ZM20.106 26.2794H19.3534C19.5713 26.149 19.7795 26.0006 19.9746 25.8338C20.7186 25.1979 21.2388 24.3404 21.4589 23.3958C22.1124 23.3104 22.6558 22.8701 22.8888 22.2754C22.9082 22.4612 22.9589 22.6378 23.0355 22.7999C22.1602 23.239 21.5798 24.1496 21.5798 25.1511V26.8461C21.189 26.4941 20.6722 26.2794 20.106 26.2794V26.2794ZM22.283 26.9527V25.1511C22.283 24.3688 22.7662 23.6619 23.4793 23.3692C23.7129 23.5599 23.9941 23.6797 24.2752 23.721C24.3564 24.0601 24.4843 24.3914 24.6386 24.6834V25.0273C24.6386 26.089 23.7749 26.9527 22.7133 26.9527H22.283V26.9527ZM32.531 31.213H24.0724V28.6207C24.0724 27.824 24.7206 27.1759 25.5173 27.1759H26.3796C26.3926 28.214 27.2413 29.0679 28.2957 29.0679C29.3381 29.0679 30.1986 28.2272 30.2118 27.1759H31.0861C31.8828 27.1759 32.531 27.824 32.531 28.6207V31.213H32.531ZM34.2969 26.9527H33.8665C32.8048 26.9527 31.9412 26.089 31.9412 25.0274V24.6834C32.0978 24.3871 32.2244 24.0559 32.3045 23.721C32.5687 23.6823 32.835 23.5749 33.0667 23.395C33.0779 23.3863 33.0895 23.3782 33.1004 23.3693C33.8136 23.662 34.2969 24.3688 34.2969 25.1511V26.9527Z" fill="black"/>
<path d="M17.0056 24.8945C17.6938 24.8945 18.2536 24.3347 18.2536 23.6465C18.2536 23.4523 18.0962 23.295 17.902 23.295C17.7079 23.295 17.5505 23.4523 17.5505 23.6465C17.5505 23.947 17.306 24.1914 17.0056 24.1914C16.7052 24.1914 16.4608 23.947 16.4608 23.6465C16.4608 23.4523 16.3033 23.295 16.1092 23.295C15.915 23.295 15.7576 23.4523 15.7576 23.6465C15.7577 24.3346 16.3175 24.8945 17.0056 24.8945Z" fill="black"/>
<path d="M14.9454 21.1983C14.7512 21.1983 14.5938 21.3557 14.5938 21.5499V22.3271C14.5938 22.5214 14.7512 22.6787 14.9454 22.6787C15.1395 22.6787 15.2969 22.5214 15.2969 22.3271V21.5499C15.2969 21.3557 15.1395 21.1983 14.9454 21.1983Z" fill="black"/>
<path d="M19.0659 22.6787C19.26 22.6787 19.4174 22.5214 19.4174 22.3271V21.5499C19.4174 21.3557 19.26 21.1983 19.0659 21.1983C18.8717 21.1983 18.7143 21.3557 18.7143 21.5499V22.3271C18.7143 22.5214 18.8717 22.6787 19.0659 22.6787Z" fill="black"/>
</g>
<defs>
<clipPath id="clip0">
<rect width="24" height="24" fill="white" transform="translate(11 11)"/>
</clipPath>
</defs>
</svg>
