<svg width="46" height="46" viewBox="0 0 46 46" fill="none" xmlns="http://www.w3.org/2000/svg">
<mask id="mask0" mask-type="alpha" maskUnits="userSpaceOnUse" x="0" y="0" width="46" height="46">
<circle cx="23" cy="23" r="23" fill="#34CC99"/>
</mask>
<g mask="url(#mask0)">
<circle cx="23" cy="23" r="23" fill="#34CC99"/>
<ellipse cx="23" cy="40" rx="8" ry="2" fill="#29AB7F"/>
<path d="M37.8425 23.4037C36.4184 24.9484 30.8336 30.4032 23 30.4032C15.1664 30.4032 9.58163 24.9484 8.1575 23.4037C7.9475 23.1754 7.9475 22.8249 8.1575 22.5966C9.58163 21.0519 15.1664 15.5971 23 15.5971C30.8336 15.5971 36.4184 21.0519 37.8425 22.5966C38.0525 22.8249 38.0525 23.1754 37.8425 23.4037Z" fill="#D7EBED"/>
<path d="M37.8425 23.4037C36.4184 24.9484 30.8336 30.4032 23 30.4032V15.5971C30.8336 15.5971 36.4184 21.0519 37.8425 22.5966C38.0525 22.8249 38.0525 23.1754 37.8425 23.4037Z" fill="#B6DADE"/>
<path d="M23 28.5884C26.0863 28.5884 28.5883 26.0865 28.5883 23.0002C28.5883 19.9138 26.0863 17.4119 23 17.4119C19.9137 17.4119 17.4117 19.9138 17.4117 23.0002C17.4117 26.0865 19.9137 28.5884 23 28.5884Z" fill="#60DAFF"/>
<path d="M28.5883 23.0002C28.5883 26.0862 26.0861 28.5884 23 28.5884V17.4119C26.0861 17.4119 28.5883 19.9141 28.5883 23.0002Z" fill="#60DAFF"/>
<path d="M23 24.8825C24.0396 24.8825 24.8824 24.0397 24.8824 23.0001C24.8824 21.9605 24.0396 21.1178 23 21.1178C21.9604 21.1178 21.1176 21.9605 21.1176 23.0001C21.1176 24.0397 21.9604 24.8825 23 24.8825Z" fill="#F72B2B"/>
<path d="M24.8824 23.0001C24.8824 24.0399 24.0398 24.8825 23 24.8825V21.1178C24.0398 21.1178 24.8824 21.9604 24.8824 23.0001Z" fill="#F72B2B"/>
<path d="M23 8C22.5127 8 22.1176 8.39506 22.1176 8.88236V10.9412C22.1176 11.4285 22.5127 11.8236 23 11.8236C23.4873 11.8236 23.8824 11.4285 23.8824 10.9412V8.88236C23.8824 8.39506 23.4873 8 23 8Z" fill="#4C78A0"/>
<path d="M28.2648 13.0037C28.6878 13.245 29.2268 13.0979 29.4684 12.6743L30.6426 10.6155C30.884 10.1922 30.7367 9.65337 30.3133 9.4119C29.8899 9.17048 29.3512 9.31784 29.1097 9.74125L27.9355 11.8001C27.6941 12.2233 27.8415 12.7622 28.2648 13.0037Z" fill="#4C78A0"/>
<path d="M16.8903 9.74118C16.6489 9.31788 16.1099 9.17047 15.6867 9.41188C15.2634 9.6533 15.116 10.1922 15.3574 10.6155L16.5317 12.6743C16.7731 13.0976 17.3119 13.245 17.7353 13.0036C18.1586 12.7622 18.306 12.2233 18.0646 11.8L16.8903 9.74118Z" fill="#4C78A0"/>
<path d="M23 34.1767C22.5127 34.1767 22.1176 34.5718 22.1176 35.0591V37.1179C22.1176 37.6052 22.5127 38.0003 23 38.0003C23.4873 38.0003 23.8824 37.6052 23.8824 37.1179V35.0591C23.8824 34.5718 23.4873 34.1767 23 34.1767Z" fill="#4C78A0"/>
<path d="M17.7352 32.9966C17.3119 32.7552 16.7731 32.9026 16.5316 33.3259L15.3574 35.3847C15.116 35.808 15.2634 36.3469 15.6867 36.5883C16.11 36.8298 16.6489 36.6823 16.8903 36.259L18.0645 34.2002C18.306 33.777 18.1585 33.2381 17.7352 32.9966Z" fill="#4C78A0"/>
<path d="M29.4684 33.326C29.2269 32.9026 28.6879 32.7553 28.2648 32.9966C27.8415 33.238 27.694 33.7769 27.9355 34.2002L29.1097 36.2591C29.3511 36.6823 29.8899 36.8298 30.3133 36.5884C30.7366 36.347 30.884 35.8081 30.6426 35.3848L29.4684 33.326Z" fill="#4C78A0"/>
</g>
</svg>
