<svg width="46" height="46" viewBox="0 0 46 46" fill="none" xmlns="http://www.w3.org/2000/svg">
<mask id="mask0" mask-type="alpha" maskUnits="userSpaceOnUse" x="0" y="0" width="46" height="46">
<circle cx="23" cy="23" r="23" fill="#34CC99"/>
</mask>
<g mask="url(#mask0)">
<circle cx="23" cy="23" r="23" fill="#34CC99"/>
<ellipse cx="15.5" cy="33" rx="7.5" ry="2" fill="#29AB7F"/>
<path d="M22.8637 26.1363C22.2963 25.5689 22.2963 24.6488 22.8637 24.0816L23.8909 23.0542L25.9459 25.1089L24.9184 26.1363C24.351 26.7037 23.4311 26.7037 22.8637 26.1363Z" fill="#4C78A0"/>
<path d="M25.3361 25.7388L23.1116 23.5143C22.3741 22.777 22.3741 21.5813 23.1116 20.8441L34.7347 9.22101C35.3254 8.63027 36.2829 8.63027 36.8736 9.22101L39.6293 11.9768C40.2201 12.5675 40.2201 13.5251 39.6293 14.1157L28.0062 25.7388C27.269 26.4762 26.0733 26.4762 25.3361 25.7388Z" fill="#A0ECFF"/>
<path d="M39.6294 14.1152L28.0063 25.7385C27.2686 26.476 26.0734 26.476 25.3364 25.739L24.4936 24.8962C25.2309 25.6332 26.4263 25.6337 27.164 24.8962L38.7871 13.2729C39.3776 12.6824 39.3776 11.725 38.7866 11.1342L39.6294 11.9767C40.2199 12.5675 40.2199 13.5247 39.6294 14.1152Z" fill="#60DAFF"/>
<path d="M33.1032 20.6413L28.0062 25.7385C27.2685 26.476 26.0733 26.476 25.3363 25.739L23.1114 23.514C22.3744 22.777 22.3739 21.5813 23.1114 20.8439L28.2086 15.7467L33.1032 20.6413Z" fill="#FF5555"/>
<path d="M33.1033 20.6413L28.0063 25.7385C27.2686 26.476 26.0734 26.476 25.3364 25.739L24.4936 24.8962C25.2309 25.6332 26.4263 25.6337 27.164 24.8962L32.261 19.799L33.1033 20.6413Z" fill="#F72B2B"/>
<path d="M40.5053 6.43552L42.4144 8.34485L30.022 20.7372L28.1127 18.8279L40.5053 6.43552Z" fill="#D9EFEC"/>
<path d="M37.2968 9.64395L39.2059 11.5533L30.022 20.7372L28.1127 18.8279L37.2968 9.64395Z" fill="#C1DBD6"/>
<path d="M26.6197 17.3353L28.2084 15.7467L33.103 20.6413L31.5143 22.23L26.6197 17.3353Z" fill="#4C78A0"/>
<path d="M30.6721 21.3877L32.2607 19.799L33.103 20.6413L31.5143 22.23L30.6721 21.3877Z" fill="#336686"/>
<path d="M43.2553 9.41969L39.5801 5.74452C39.0645 5.22885 39.0645 4.39252 39.5801 3.87661L39.8445 3.61248C40.0741 3.38292 40.446 3.38292 40.6756 3.61248L45.3876 8.32448C45.6171 8.55382 45.6171 8.92599 45.3876 9.15556L45.1232 9.41969C44.6075 9.93559 43.7712 9.93559 43.2553 9.41969Z" fill="#C1DBD6"/>
<path d="M26.7749 21.1863C26.8877 21.1863 27.0005 21.1433 27.0866 21.0572C27.2587 20.8851 27.2587 20.6061 27.0866 20.4339L26.4753 19.8226C26.3031 19.6505 26.0239 19.6505 25.8518 19.8226C25.6797 19.9947 25.6797 20.2737 25.8518 20.4459L26.4633 21.0572C26.5494 21.1433 26.6622 21.1863 26.7749 21.1863Z" fill="black"/>
<path d="M25.1814 21.1162C25.0093 20.9441 24.7303 20.9441 24.5582 21.1162C24.386 21.2884 24.386 21.5676 24.5582 21.7397L25.1695 22.3511C25.2556 22.4371 25.3684 22.4802 25.4813 22.4802C25.5939 22.4802 25.7067 22.4371 25.7928 22.3511C25.9649 22.179 25.9649 21.8997 25.7928 21.7278L25.1814 21.1162Z" fill="black"/>
<path d="M45.6993 8.01275L44.1894 6.50259C44.0173 6.33047 43.738 6.33047 43.5659 6.50259C43.3938 6.67471 43.3938 6.95394 43.5659 7.12606L45.0761 8.636C45.1333 8.69322 45.1333 8.78637 45.0761 8.84382L44.8117 9.10818C44.4686 9.45128 43.9101 9.45128 43.567 9.10818L39.8919 5.43279C39.5488 5.0897 39.5488 4.53145 39.8919 4.18836L40.1562 3.924C40.2135 3.86678 40.3066 3.86655 40.3641 3.924L42.1457 5.70562C42.3178 5.87774 42.597 5.87774 42.7692 5.70562C42.9413 5.5335 42.9413 5.25449 42.7692 5.08237L40.9873 3.30075C40.5863 2.89975 39.934 2.89975 39.5328 3.30075L39.2686 3.56511C38.5818 4.25199 38.5818 5.36939 39.2686 6.05627L39.7651 6.55271L37.2968 9.02098L35.2975 7.02169C35.1254 6.84957 34.8462 6.84957 34.674 7.02169C34.5019 7.19381 34.5019 7.47282 34.674 7.64494L35.4069 8.37759C35.0368 8.45381 34.6965 8.63577 34.423 8.90928L22.7999 20.5324C21.9432 21.3891 21.8951 22.7528 22.6552 23.6667L22.552 23.7699C22.1945 24.1277 21.9974 24.6031 21.9974 25.1089C21.9974 25.4643 22.0949 25.8047 22.2769 26.0999L16.1291 32.2475C15.957 32.4196 15.957 32.6989 16.1291 32.8707C16.2151 32.9568 16.328 33.0001 16.4408 33.0001C16.5534 33.0001 16.6663 32.957 16.7523 32.8707L22.9006 26.7225C23.2034 26.9084 23.5472 27.0017 23.8909 27.0017C24.3759 27.0017 24.8609 26.8173 25.2301 26.4481L25.3542 26.3238C25.7495 26.5952 26.21 26.7314 26.6712 26.7314C27.2674 26.7314 27.8639 26.5044 28.3178 26.0505L29.1486 25.2197C29.3207 25.0475 29.3207 24.7683 29.1486 24.5964C28.9765 24.4243 28.6975 24.4243 28.5254 24.5964L27.6945 25.427C27.1301 25.9915 26.212 25.9915 25.6476 25.427L23.4231 23.2025C22.8587 22.6383 22.8587 21.7201 23.4231 21.1556L26.6199 17.9588L30.8915 22.2302L29.9456 23.1762C29.7735 23.3483 29.7735 23.6273 29.9456 23.7994C30.0316 23.8855 30.1445 23.9285 30.2573 23.9285C30.3699 23.9285 30.4828 23.8855 30.5688 23.7994L35.2957 19.0726C35.4678 18.9005 35.4678 18.6214 35.2957 18.4493C35.1236 18.2772 34.8443 18.2772 34.6722 18.4493L33.1032 20.0185L32.2339 19.149L39.2061 12.1768L39.3176 12.2885C39.5202 12.4908 39.6316 12.76 39.6316 13.0461C39.6316 13.3324 39.5202 13.6016 39.3176 13.8039L36.0924 17.0291C35.9203 17.2012 35.9203 17.4805 36.0924 17.6524C36.2648 17.8245 36.5438 17.8245 36.7159 17.6524L39.9411 14.4272C40.2144 14.1539 40.3966 13.8135 40.4728 13.4434L41.3551 14.3258C41.4412 14.4118 41.554 14.4549 41.6669 14.4549C41.7797 14.4549 41.8923 14.4118 41.9784 14.3258C42.1505 14.1537 42.1505 13.8747 41.9784 13.7025L39.9411 11.665L39.8294 11.5536L42.2977 9.08529L42.9438 9.73143C43.2871 10.0748 43.7382 10.2464 44.1894 10.2464C44.6405 10.2464 45.0916 10.0748 45.4349 9.73143L45.6993 9.46707C46.1003 9.06607 46.1003 8.41375 45.6993 8.01275ZM23.8912 26.121C23.6206 26.121 23.3666 26.0157 23.1755 25.8246C22.9841 25.6335 22.8788 25.3792 22.8788 25.1089C22.8788 24.8386 22.9841 24.5843 23.1755 24.3932L23.2714 24.2973L24.7028 25.7287L24.6069 25.8246C24.4155 26.0159 24.1615 26.121 23.8912 26.121ZM40.3883 7.17596L40.7197 7.50738L38.2515 9.97542L37.9201 9.64422L40.3883 7.17596ZM30.3246 17.2399L37.2968 10.2675L37.6282 10.5989L30.6558 17.5711L30.3246 17.2399ZM35.0462 9.53253C35.2485 9.3302 35.5177 9.21873 35.804 9.21873C36.0904 9.21873 36.3595 9.3302 36.5619 9.53253L36.6736 9.64422L29.7011 16.6164L28.8318 15.7471L35.0462 9.53253ZM31.5148 21.607L27.2434 17.3356L28.2086 16.3704L32.48 20.6418L31.5148 21.607ZM31.6105 18.5258L31.2793 18.1946L38.2515 11.2221L38.5829 11.5536L31.6105 18.5258ZM39.2061 10.9303L38.8747 10.5989L41.343 8.13063L41.6744 8.46205L39.2061 10.9303Z" fill="black"/>
</g>
</svg>
