<svg width="46" height="46" viewBox="0 0 46 46" fill="none" xmlns="http://www.w3.org/2000/svg">
<mask id="mask0" mask-type="alpha" maskUnits="userSpaceOnUse" x="0" y="0" width="46" height="46">
<circle cx="23" cy="23" r="23" fill="#34CC99"/>
</mask>
<g mask="url(#mask0)">
<circle cx="23" cy="23" r="23" fill="#34CC99"/>
<ellipse cx="23" cy="36" rx="12" ry="2" fill="#29AB7F"/>
</g>
<g clip-path="url(#clip0)">
<path d="M34.0577 23.1406C34.4537 23.2185 34.7116 23.6023 34.6341 23.9978L34.3452 25.4688C34.2653 25.876 33.8614 26.1372 33.4537 26.0372C33.0719 25.9437 32.8403 25.5534 32.9159 25.1678L32.9239 25.1283L31.0198 25.2152C30.9625 25.2175 30.9127 25.2556 30.8948 25.3105C30.7088 25.8723 30.4641 26.4077 30.1678 26.9084C30.1377 26.9592 30.1424 27.0235 30.1804 27.0686L31.0226 28.069C31.1898 27.9098 31.4082 27.8271 31.629 27.8271C31.815 27.8271 32.0028 27.8859 32.1621 28.008C32.5477 28.3029 32.621 28.8548 32.326 29.2409L32.0817 29.5598C31.7952 29.9346 31.2612 30.0352 30.8723 29.767C30.5374 29.5364 30.4162 29.1216 30.5374 28.7614L29.3242 28.2283C29.2692 28.2043 29.2058 28.2184 29.1659 28.2625C28.6042 28.8793 27.9503 29.41 27.2261 29.8337C27.1763 29.8628 27.1495 29.9192 27.1589 29.976L27.4694 31.8698L27.738 31.7622C28.1237 31.6082 28.5624 31.8054 28.7 32.2023C28.8287 32.5738 28.6267 32.9801 28.2617 33.1257L26.8888 33.6753C26.5037 33.8293 26.065 33.6321 25.9274 33.2352C25.7987 32.8636 26.0007 32.4574 26.3656 32.3113L26.4027 32.2967L25.2952 30.7449C25.2618 30.6979 25.2031 30.6772 25.1472 30.6918C24.4854 30.8632 23.7912 30.9553 23.0754 30.9553C22.509 30.9553 21.9566 30.8975 21.4226 30.7885C21.3662 30.7773 21.3084 30.8012 21.2774 30.8496L20.1694 32.5879L20.2084 32.602C20.5691 32.7335 20.7927 33.0741 20.7927 33.4367C20.7927 33.5381 20.7753 33.641 20.7387 33.7415C20.7387 34.2614 20.339 34.5414 19.8505 34.3629L18.4889 33.8664C18.0333 33.7006 17.7956 33.2004 17.953 32.7434C18.1145 32.2723 18.6514 32.0346 19.1192 32.2051L19.1507 32.2164L19.3761 30.1794C19.3827 30.1221 19.3526 30.0676 19.3014 30.0408C18.4391 29.5955 17.6655 29.0023 17.0141 28.2945C16.9746 28.2517 16.9131 28.2377 16.8595 28.2597L15.1978 28.9413C15.3856 29.2926 15.28 29.7378 14.9371 29.9633C14.5792 30.1986 14.0959 30.0892 13.8516 29.7378L13.4261 29.1249C13.1879 28.7825 13.2434 28.3053 13.5712 28.047C13.9207 27.7717 14.419 27.8431 14.6806 28.1893L15.8511 26.8666C15.8901 26.8225 15.8967 26.7586 15.868 26.7074C15.3875 25.8413 15.0587 24.8794 14.9174 23.8578C14.9094 23.8005 14.8676 23.754 14.8117 23.7413L12.9414 23.3092L12.9395 23.5285C12.9376 23.7479 12.8474 23.9466 12.7023 24.0898C12.5576 24.2335 12.3585 24.3218 12.1387 24.3218C11.7018 24.3218 11.3482 23.9653 11.3524 23.5285L11.3646 22.1697C11.3684 21.7254 11.7357 21.351 12.1795 21.3628C12.6102 21.3741 12.954 21.7282 12.9517 22.1603L14.8084 21.7249C14.8647 21.7118 14.9065 21.6653 14.9141 21.608C15.0597 20.5277 15.4152 19.5136 15.938 18.608C15.9671 18.5573 15.9619 18.4939 15.9239 18.4488L15.0385 17.4089L14.9615 17.5104C14.7229 17.826 14.2673 17.881 13.9596 17.625C13.6713 17.3845 13.636 16.9533 13.8624 16.6541L14.4524 15.8744C14.5895 15.6936 14.7976 15.5983 15.0085 15.5983C15.1545 15.5983 15.302 15.6443 15.4279 15.7392C15.7196 15.9595 15.7882 16.3643 15.5956 16.6678L16.8337 17.2032C16.8882 17.2267 16.9511 17.2126 16.9915 17.1689C17.5758 16.5283 18.2601 15.9806 19.0201 15.5499C19.0699 15.5212 19.0976 15.4653 19.0891 15.4085L18.804 13.5105L18.5335 13.6148C18.1465 13.7636 17.7101 13.5603 17.5782 13.162C17.4542 12.7886 17.6618 12.3851 18.0286 12.2442L19.4085 11.7134C19.796 11.5646 20.2319 11.7675 20.3639 12.1662C20.4879 12.5392 20.2808 12.9426 19.9135 13.084L19.8764 13.0981L20.9623 14.664C20.9952 14.7115 21.0534 14.7331 21.1093 14.7195C21.7396 14.5649 22.3977 14.4832 23.0754 14.4832H23.0764C23.1355 14.4832 23.1886 14.447 23.2083 14.3912L23.5681 13.3851C23.1515 13.2545 22.8739 12.8435 22.927 12.3954C22.9876 11.8877 23.4737 11.527 23.9815 11.5909L24.4756 11.6529C24.9791 11.7163 25.3567 12.1672 25.3018 12.6721C25.2585 13.0652 24.9758 13.3715 24.6169 13.4654L24.7419 14.556C24.7485 14.6147 24.7921 14.6626 24.8504 14.6753C25.6855 14.859 26.4732 15.1694 27.1918 15.5851C27.242 15.6138 27.304 15.6095 27.3487 15.5729L28.839 14.3634L28.6126 14.1836C28.2871 13.9252 28.2411 13.4466 28.5173 13.1305C28.7756 12.8341 29.2288 12.8078 29.5365 13.0525L30.6943 13.9717C31.0198 14.2296 31.0658 14.7087 30.7896 15.0248C30.5313 15.3207 30.078 15.347 29.7704 15.1027L29.7389 15.0778L28.9409 16.8105C28.9165 16.8627 28.9278 16.9242 28.9682 16.9655C29.5299 17.5409 30.0081 18.1985 30.3829 18.918C30.4101 18.9702 30.4669 18.9998 30.5252 18.9918L31.6567 18.8335C31.4904 18.3694 31.737 17.8551 32.2114 17.6997C32.6637 17.5512 33.1512 17.8025 33.3175 18.2487L33.5782 18.9476C33.7426 19.3896 33.5453 19.8955 33.1132 20.0833C32.6989 20.2632 32.2316 20.1007 32.0089 19.7334L31.07 20.3703C31.0207 20.4037 30.9986 20.4647 31.0146 20.522C31.2077 21.2219 31.311 21.9584 31.311 22.7193C31.311 22.8465 31.3082 22.9729 31.3021 23.0983C31.2997 23.1561 31.3321 23.2091 31.3847 23.2322L33.1451 24.001L33.2006 23.7169C33.2785 23.3209 33.6623 23.0631 34.0577 23.1406V23.1406Z" fill="#F79595"/>
<path d="M26.6517 19.6367C27.2939 19.6367 27.8145 19.2014 27.8145 18.6644C27.8145 18.1275 27.2939 17.6922 26.6517 17.6922C26.0095 17.6922 25.4889 18.1275 25.4889 18.6644C25.4889 19.2014 26.0095 19.6367 26.6517 19.6367Z" fill="#EE6161"/>
<path d="M22.4556 25.9897C23.1575 25.9897 23.7265 25.4207 23.7265 24.7188C23.7265 24.0169 23.1575 23.4479 22.4556 23.4479C21.7536 23.4479 21.1846 24.0169 21.1846 24.7188C21.1846 25.4207 21.7536 25.9897 22.4556 25.9897Z" fill="#EE6161"/>
<path d="M27.4088 24.9667C27.9114 24.9667 28.3188 24.5593 28.3188 24.0567C28.3188 23.5541 27.9114 23.1467 27.4088 23.1467C26.9063 23.1467 26.4988 23.5541 26.4988 24.0567C26.4988 24.5593 26.9063 24.9667 27.4088 24.9667Z" fill="#F9B1B1"/>
<path d="M24.0481 29.3822C24.5367 29.3822 24.9328 28.9861 24.9328 28.4975C24.9328 28.0089 24.5367 27.6128 24.0481 27.6128C23.5595 27.6128 23.1634 28.0089 23.1634 28.4975C23.1634 28.9861 23.5595 29.3822 24.0481 29.3822Z" fill="#F9B1B1"/>
<path d="M18.0669 22.3249C18.0669 19.1588 19.5773 16.3448 21.9158 14.5642C21.6428 14.6028 21.3732 14.6548 21.1093 14.7195C21.0535 14.7331 20.9952 14.7115 20.9623 14.6641L19.8764 13.0981L19.9135 13.0841C20.2808 12.9427 20.4879 12.5392 20.3639 12.1663C20.232 11.7675 19.7961 11.5646 19.4086 11.7135L18.0286 12.2442C17.6618 12.3852 17.4542 12.7886 17.5782 13.162C17.7102 13.5603 18.1465 13.7637 18.5336 13.6148L18.8041 13.5105L19.0892 15.4086C19.0977 15.4654 19.0699 15.5213 19.0202 15.5499C18.2602 15.9806 17.5759 16.5283 16.9916 17.169C16.9512 17.2126 16.8882 17.2267 16.8337 17.2032L15.5956 16.6678C15.7882 16.3644 15.7196 15.9595 15.428 15.7392C15.3021 15.6443 15.1546 15.5983 15.0085 15.5983C14.7976 15.5983 14.5896 15.6937 14.4524 15.8745L13.8625 16.6542C13.6361 16.9534 13.6713 17.3845 13.9597 17.625C14.2674 17.881 14.723 17.8261 14.9616 17.5104L15.0386 17.409L15.924 18.4489C15.962 18.494 15.9672 18.5574 15.938 18.6081C15.4153 19.5137 15.0597 20.5277 14.9141 21.608C14.9066 21.6653 14.8648 21.7118 14.8084 21.725L12.9518 22.1604C12.9541 21.7283 12.6103 21.3741 12.1796 21.3628C11.7357 21.3511 11.3684 21.7254 11.3647 22.1698L11.3525 23.5286C11.3482 23.9654 11.7019 24.3219 12.1387 24.3219C12.3585 24.3219 12.5577 24.2336 12.7023 24.0899C12.8475 23.9466 12.9377 23.7479 12.9395 23.5286L12.9414 23.3092L14.8117 23.7414C14.8676 23.754 14.9094 23.8005 14.9174 23.8578C15.0588 24.8794 15.3876 25.8413 15.8681 26.7075C15.8967 26.7586 15.8901 26.8225 15.8512 26.8667L14.6807 28.1893C14.4191 27.8432 13.9207 27.7718 13.5713 28.047C13.2434 28.3053 13.188 28.7825 13.4261 29.125L13.8517 29.7379C14.0959 30.0892 14.5792 30.1987 14.9371 29.9634C15.28 29.7379 15.3857 29.2926 15.1978 28.9413L16.8596 28.2598C16.9131 28.2377 16.9747 28.2518 17.0141 28.2945C17.6656 29.0024 18.4392 29.5956 19.3015 30.0408C19.3527 30.0676 19.3828 30.1221 19.3762 30.1794L19.1507 32.2165L19.1193 32.2052C18.6515 32.0347 18.1146 32.2724 17.953 32.7435C17.7957 33.2005 18.0333 33.7007 18.4889 33.8665L19.8506 34.3629C20.3391 34.5414 20.7388 34.2615 20.7388 33.7415C20.7754 33.641 20.7928 33.5382 20.7928 33.4367C20.7928 33.0741 20.5692 32.7336 20.2085 32.6021L20.1695 32.588L21.2775 30.8497C21.3085 30.8013 21.3663 30.7773 21.4226 30.7886C21.9567 30.8976 22.509 30.9553 23.0755 30.9553C23.1421 30.9553 23.2099 30.9545 23.2761 30.9529C20.1795 29.3201 18.0669 26.0689 18.0669 22.3249V22.3249Z" fill="#F37C7C"/>
<path d="M18.5122 27.3029C19.0212 27.3029 19.4339 26.8903 19.4339 26.3813C19.4339 25.8723 19.0212 25.4596 18.5122 25.4596C18.0032 25.4596 17.5906 25.8723 17.5906 26.3813C17.5906 26.8903 18.0032 27.3029 18.5122 27.3029Z" fill="#EE6161"/>
<path d="M21.5993 21.2249C22.6512 20.3955 22.9423 19.011 22.2496 18.1326C21.5569 17.2541 20.1427 17.2144 19.0909 18.0438C18.0391 18.8732 17.7479 20.2577 18.4406 21.1362C19.1333 22.0146 20.5475 22.0544 21.5993 21.2249Z" fill="#EE6161"/>
<path d="M34.1258 22.7951C33.8419 22.7394 33.5536 22.7976 33.3136 22.9588C33.1148 23.0924 32.9689 23.2835 32.893 23.5064L31.6597 22.9679C31.6622 22.8834 31.6635 22.8003 31.6635 22.7192C31.6635 21.9941 31.5727 21.274 31.3936 20.5765L31.9468 20.2012C32.2975 20.5084 32.8071 20.6002 33.2533 20.4063C33.8538 20.1454 34.1413 19.4506 33.908 18.8245L33.6476 18.1256C33.4114 17.4918 32.7322 17.1579 32.1014 17.365C31.7821 17.4698 31.5252 17.6935 31.378 17.9947C31.2943 18.1661 31.252 18.3498 31.2519 18.5345L30.6243 18.6222C30.5383 18.4645 30.4444 18.3048 30.344 18.1457C30.2403 17.9811 30.0227 17.9318 29.8582 18.0355C29.6936 18.1393 29.6442 18.3568 29.748 18.5214C29.8664 18.7092 29.9749 18.8974 30.0705 19.0809C30.1664 19.2648 30.3688 19.3691 30.5736 19.3406L31.7054 19.1826C31.8105 19.1679 31.9033 19.1067 31.9582 19.016C32.013 18.9252 32.0241 18.8146 31.9883 18.7147C31.9397 18.5793 31.9478 18.4335 32.011 18.3041C32.074 18.1751 32.1841 18.0794 32.3212 18.0344C32.5869 17.9472 32.8856 18.0985 32.9874 18.3716L33.2478 19.0706C33.3486 19.3411 33.2251 19.6505 32.9725 19.7603C32.7307 19.8653 32.446 19.7753 32.3099 19.5509C32.2599 19.4684 32.1781 19.41 32.0839 19.3894C31.9896 19.3688 31.8909 19.3879 31.811 19.4421L30.8723 20.0788C30.6981 20.1969 30.6188 20.4128 30.675 20.6161C30.8634 21.2984 30.959 22.0061 30.959 22.7193C30.959 22.8361 30.956 22.9583 30.9503 23.0823C30.9409 23.2844 31.059 23.4744 31.2439 23.5552L33.0039 24.3238C33.1018 24.3665 33.2138 24.3626 33.3084 24.313C33.403 24.2634 33.47 24.1736 33.4906 24.0688L33.5464 23.7846C33.5658 23.6856 33.6227 23.6 33.7065 23.5437C33.7903 23.4874 33.891 23.467 33.9901 23.4865C34.1946 23.5266 34.3284 23.7257 34.2883 23.9302L33.9996 25.4011C33.9795 25.5035 33.92 25.5908 33.832 25.647C33.7441 25.7031 33.6395 25.7201 33.5377 25.6953C33.3451 25.648 33.2213 25.4417 33.2618 25.2354L33.2695 25.1961C33.2902 25.09 33.2611 24.9802 33.1906 24.8984C33.12 24.8164 33.0149 24.7711 32.9077 24.7764L31.0039 24.8633C30.8023 24.8724 30.6241 25.0076 30.5604 25.1998C30.384 25.7324 30.1499 26.2469 29.8645 26.7291C29.7582 26.9086 29.7769 27.1362 29.9109 27.2954L30.7531 28.296C30.8157 28.3704 30.9062 28.4155 31.0032 28.4209C31.1001 28.4262 31.1951 28.3913 31.2654 28.3244C31.4542 28.1448 31.7412 28.1295 31.9479 28.2876C32.0598 28.3732 32.1315 28.4972 32.1501 28.6368C32.1687 28.7764 32.1318 28.9148 32.0462 29.0267L31.8022 29.3456C31.6269 29.5747 31.2994 29.6336 31.0722 29.4771C30.8791 29.344 30.7965 29.096 30.8714 28.874C30.9297 28.7011 30.8464 28.5123 30.6793 28.4389L29.4659 27.906C29.273 27.8211 29.0478 27.8691 28.9054 28.0253C28.3644 28.6194 27.7396 29.1256 27.0485 29.5297C26.8739 29.6316 26.7786 29.8339 26.8112 30.0329L27.1218 31.9269C27.1391 32.0323 27.2033 32.1242 27.2963 32.1767C27.3894 32.2292 27.5011 32.2366 27.6003 32.197L27.8691 32.0894C27.966 32.0506 28.0717 32.0532 28.1666 32.0966C28.2616 32.1399 28.3327 32.2184 28.3671 32.3176C28.432 32.5049 28.326 32.7209 28.1308 32.799L26.7582 33.3481C26.6613 33.3869 26.5557 33.3843 26.4607 33.3409C26.3658 33.2976 26.2946 33.2191 26.2603 33.12C26.1953 32.9326 26.3013 32.7166 26.4964 32.6386L26.5335 32.6237C26.6339 32.5836 26.7103 32.4995 26.7408 32.3958C26.7711 32.292 26.7523 32.18 26.6894 32.092L25.5821 30.5405C25.465 30.3763 25.2546 30.3001 25.059 30.3508C24.4134 30.5181 23.7461 30.603 23.0753 30.603C22.5443 30.603 22.0119 30.5494 21.493 30.4436C21.295 30.4033 21.0892 30.4903 20.9805 30.6604L19.8722 32.3986C19.8147 32.4887 19.8013 32.6 19.8356 32.7011C19.8699 32.8023 19.9482 32.8824 20.0486 32.919L20.0878 32.9333C20.2224 32.9824 20.3298 33.0809 20.3903 33.2108C20.4507 33.3406 20.4569 33.4863 20.4079 33.6208C20.3938 33.6595 20.3866 33.7003 20.3866 33.7415C20.3866 33.8747 20.3473 33.9757 20.2759 34.0256C20.2045 34.0756 20.0963 34.078 19.9711 34.0323L18.6095 33.5358C18.3369 33.4364 18.1917 33.1324 18.2859 32.8581C18.3308 32.7273 18.4276 32.621 18.5584 32.5586C18.6965 32.4927 18.8571 32.4845 18.9988 32.5362L19.03 32.5476C19.1315 32.5847 19.2445 32.573 19.3364 32.516C19.4283 32.4589 19.4889 32.3629 19.5008 32.2554L19.7264 30.2182C19.7486 30.0178 19.6428 29.8208 19.4632 29.7281C18.6396 29.3028 17.9027 28.7402 17.2732 28.0562C17.1346 27.9055 16.9146 27.8563 16.7257 27.9339L15.0642 28.6152C14.972 28.653 14.9001 28.7281 14.8664 28.8218C14.8326 28.9156 14.8402 29.0193 14.8871 29.1071C14.9926 29.3044 14.9308 29.5461 14.7435 29.6692C14.5504 29.7963 14.28 29.7369 14.141 29.5368L13.7154 28.9241C13.5789 28.7277 13.6114 28.4639 13.7894 28.3237C13.8814 28.2512 13.9956 28.2194 14.1107 28.2342C14.2266 28.2492 14.3292 28.3086 14.3996 28.4017C14.4633 28.486 14.5615 28.5372 14.6671 28.5413C14.7723 28.5453 14.8744 28.5018 14.9444 28.4227L16.1147 27.1C16.252 26.9447 16.2767 26.7183 16.1759 26.5364C16.0501 26.3094 15.933 26.0704 15.8281 25.826C15.7513 25.6473 15.5442 25.5646 15.3654 25.6414C15.1866 25.7182 15.1039 25.9253 15.1807 26.1041C15.2748 26.323 15.3778 26.5381 15.4878 26.7453L14.6495 27.6928C14.5147 27.6101 14.3627 27.5562 14.2007 27.5354C13.896 27.4962 13.5953 27.5797 13.3533 27.7703C12.8832 28.1407 12.7882 28.8241 13.1369 29.3261L13.5625 29.9386C13.9176 30.4498 14.621 30.593 15.1307 30.2578C15.5119 30.0071 15.6955 29.5699 15.6314 29.144L16.8564 28.6416C17.4855 29.3022 18.2088 29.8543 19.0101 30.2855L18.8425 31.7987C18.6414 31.793 18.4391 31.8348 18.255 31.9226C17.9522 32.067 17.7265 32.3179 17.6196 32.6291C17.4016 33.264 17.7374 33.9676 18.3682 34.1976L19.7297 34.6941C19.8664 34.7439 20.0036 34.7685 20.1359 34.7685C20.335 34.7685 20.5228 34.7126 20.6799 34.6027C20.9264 34.4302 21.0737 34.1411 21.0897 33.8031C21.1811 33.5085 21.1601 33.1948 21.029 32.9132C20.945 32.7327 20.8217 32.5783 20.6691 32.4592L21.4963 31.1618C22.6841 31.3828 23.9228 31.3503 25.0933 31.0682L25.8971 32.1945C25.5808 32.4808 25.4493 32.9314 25.5945 33.3506C25.6926 33.6335 25.8963 33.8576 26.168 33.9817C26.436 34.1041 26.7464 34.1115 27.0199 34.0022L28.3925 33.4531C28.9409 33.2337 29.2222 32.6336 29.0328 32.0869C28.9348 31.804 28.7311 31.5798 28.4594 31.4557C28.2364 31.3539 27.9839 31.3315 27.7478 31.3901L27.5301 30.0628C28.1895 29.662 28.7912 29.1749 29.322 28.6123L30.1417 28.9723C30.1188 29.3934 30.314 29.8102 30.6724 30.0572C31.2131 30.4297 31.9551 30.3052 32.3617 29.7738L32.6058 29.4549C32.8057 29.1936 32.892 28.87 32.8486 28.5439C32.8052 28.2177 32.6374 27.928 32.3761 27.728C31.9948 27.4363 31.4971 27.397 31.0873 27.599L30.5468 26.9568C30.7994 26.512 31.0125 26.0435 31.1818 25.5604L32.5635 25.4974C32.632 25.9185 32.9389 26.2736 33.3697 26.3794C33.6605 26.4508 33.9593 26.4015 34.2111 26.2408C34.4594 26.0823 34.6343 25.8257 34.691 25.5367L34.9797 24.0658C35.0945 23.48 34.7115 22.91 34.1258 22.7951V22.7951Z" fill="black"/>
<path d="M13.2696 23.7466L14.59 24.0516C14.6188 24.2352 14.6543 24.4216 14.6961 24.6076C14.7329 24.7714 14.8783 24.8827 15.0395 24.8827C15.0651 24.8827 15.0911 24.8799 15.117 24.8741C15.3068 24.8314 15.4262 24.643 15.3835 24.4532C15.335 24.2369 15.2956 24.0203 15.2665 23.8095C15.2387 23.6088 15.0878 23.4433 14.8909 23.3979L13.0208 22.966C12.9169 22.942 12.8074 22.9665 12.7235 23.0326C12.6396 23.0987 12.5903 23.1993 12.5893 23.3061L12.5874 23.5251C12.5852 23.7701 12.384 23.9696 12.1389 23.9696C12.0222 23.9696 11.9126 23.9239 11.8305 23.841C11.7483 23.7581 11.7036 23.6482 11.7046 23.5314L11.7168 22.1729C11.7179 22.0483 11.7709 21.9265 11.862 21.8385C11.9477 21.7559 12.056 21.7115 12.1703 21.7149C12.4083 21.7212 12.6008 21.9202 12.5995 22.1584C12.5989 22.2663 12.6478 22.3686 12.7322 22.4358C12.8166 22.5032 12.9273 22.528 13.0322 22.5033L14.8891 22.0679C15.0858 22.0218 15.2361 21.856 15.2632 21.6552C15.4003 20.6391 15.7299 19.6732 16.2431 18.7842C16.3466 18.6047 16.3262 18.3782 16.1921 18.2206L15.3066 17.1806C15.2374 17.0993 15.1356 17.0537 15.0282 17.0568C14.9215 17.0599 14.8218 17.1112 14.7574 17.1964L14.6806 17.2978C14.6233 17.3737 14.5397 17.4213 14.4452 17.4322C14.351 17.443 14.2584 17.4153 14.185 17.3541C14.0463 17.2385 14.0276 17.0199 14.1434 16.8669L14.7332 16.087C14.8477 15.9356 15.0641 15.9055 15.2154 16.0201C15.3572 16.1273 15.3935 16.3286 15.2981 16.4785C15.2428 16.5655 15.2284 16.6724 15.2587 16.771C15.289 16.8696 15.3609 16.9499 15.4555 16.9909L16.6938 17.5264C16.8857 17.6095 17.1098 17.5613 17.2514 17.4063C17.8151 16.7888 18.4686 16.2672 19.1938 15.8562C19.3694 15.7565 19.4674 15.5557 19.4375 15.3562L19.1522 13.4583C19.1364 13.3527 19.0734 13.26 18.9811 13.2062C18.8887 13.1524 18.7769 13.1435 18.6774 13.1818L18.4072 13.2858C18.3098 13.3232 18.2042 13.3193 18.1098 13.2747C18.0155 13.2301 17.9454 13.1507 17.9124 13.051C17.85 12.8628 17.9588 12.6483 18.1551 12.5728L19.5349 12.0421C19.6323 12.0046 19.7379 12.0086 19.8322 12.0532C19.9265 12.0978 19.9967 12.1772 20.0297 12.2768C20.092 12.4651 19.9832 12.6796 19.7869 12.7551L19.7496 12.7695C19.6488 12.8083 19.5713 12.8913 19.5395 12.9947C19.5077 13.098 19.5251 13.2102 19.5868 13.299L20.673 14.8649C20.7878 15.0305 20.9969 15.1096 21.1932 15.0615C21.8054 14.9116 22.4386 14.8355 23.0761 14.8355H23.0763C23.2841 14.8355 23.4704 14.7045 23.5399 14.5098L23.8996 13.5034C23.9318 13.4131 23.9259 13.3135 23.8831 13.2278C23.8404 13.142 23.7645 13.0772 23.673 13.0486C23.4111 12.9667 23.2445 12.7095 23.2768 12.4371C23.294 12.2922 23.3702 12.1602 23.4912 12.0656C23.6182 11.9662 23.7808 11.9205 23.9374 11.9403L24.4313 12.0025C24.7515 12.0428 24.9847 12.3259 24.9512 12.6337C24.9253 12.8712 24.759 13.0639 24.5275 13.1245C24.3579 13.1689 24.2467 13.3312 24.2667 13.5054L24.3917 14.5959C24.4155 14.804 24.5693 14.9741 24.7745 15.0193C25.5613 15.1921 26.3153 15.4851 27.0153 15.8899C27.1906 15.9913 27.4137 15.9738 27.5706 15.8465L29.0608 14.6369C29.1438 14.5696 29.1917 14.4682 29.1911 14.3614C29.1905 14.2547 29.1415 14.1539 29.0579 14.0875L28.8312 13.9074C28.7494 13.8426 28.6992 13.7496 28.6897 13.6455C28.6803 13.5417 28.713 13.441 28.7821 13.3619C28.9126 13.2125 29.1526 13.1974 29.3174 13.3281L30.4752 14.2473C30.5569 14.3122 30.6072 14.4052 30.6167 14.5092C30.6261 14.613 30.5933 14.7137 30.5242 14.7928C30.3937 14.9422 30.1535 14.9573 29.9891 14.8267L29.9578 14.8019C29.8731 14.7346 29.7621 14.71 29.6571 14.7351C29.5519 14.7602 29.464 14.8322 29.4188 14.9304L28.6206 16.6632C28.5362 16.8464 28.5744 17.0668 28.7157 17.2115C28.7657 17.2628 28.8152 17.3159 28.8741 17.3798C29.0058 17.523 29.2287 17.5322 29.3718 17.4004C29.5149 17.2686 29.5242 17.0458 29.3924 16.9026C29.3675 16.8755 29.3441 16.8501 29.3213 16.8259L29.9011 15.5674C30.3067 15.7 30.763 15.5905 31.0548 15.2564C31.2518 15.0309 31.3454 14.7429 31.3182 14.4453C31.2915 14.1519 31.1439 13.8787 30.9132 13.6956L29.7554 12.7765C29.2928 12.4092 28.6323 12.4627 28.2515 12.8985C28.0545 13.124 27.961 13.4121 27.9881 13.7096C28.0104 13.9538 28.1163 14.184 28.2843 14.3599L27.2403 15.2075C26.5583 14.8285 25.8311 14.5457 25.0747 14.3653L24.9973 13.6895C25.3553 13.4915 25.6065 13.1268 25.6519 12.71C25.7267 12.0225 25.2187 11.3915 24.5196 11.3035L24.0257 11.2413C23.6844 11.1983 23.3313 11.2965 23.0574 11.5106C22.7875 11.7218 22.617 12.0213 22.5775 12.3541C22.52 12.8378 22.7432 13.3001 23.1308 13.5615L22.9268 14.1323C22.3332 14.1424 21.7432 14.2133 21.1689 14.3434L20.3805 13.207C20.7006 12.925 20.8381 12.4762 20.6986 12.0552C20.6043 11.7709 20.4036 11.5441 20.1336 11.4163C19.8673 11.2904 19.557 11.2788 19.2821 11.3845L17.9023 11.9152C17.351 12.1272 17.0617 12.7235 17.2438 13.2727C17.338 13.5569 17.5386 13.7838 17.8087 13.9116C18.0303 14.0163 18.2823 14.042 18.5193 13.9867L18.7192 15.3167C18.0237 15.7268 17.3909 16.2316 16.8349 16.8197L16.0396 16.4757C16.1042 16.0992 15.9603 15.7 15.6405 15.4581C15.4171 15.2891 15.1414 15.2171 14.8638 15.2558C14.5863 15.2942 14.3404 15.4385 14.1714 15.662L13.5816 16.4418C13.2364 16.8981 13.3034 17.5366 13.7341 17.8954C13.957 18.0811 14.238 18.1652 14.5256 18.1321C14.707 18.1113 14.8793 18.0428 15.025 17.9365L15.5586 18.5633C15.0655 19.4527 14.7387 20.4109 14.5859 21.4154L13.2228 21.735C13.0573 21.3221 12.657 21.023 12.189 21.0106C11.8843 21.003 11.5956 21.1166 11.3727 21.3316C11.1465 21.5499 11.0151 21.8542 11.0123 22.1665L11 23.5252C10.9973 23.8313 11.1145 24.1196 11.33 24.337C11.5454 24.5544 11.8327 24.6742 12.1389 24.6742C12.6954 24.6742 13.164 24.2743 13.2696 23.7466V23.7466Z" fill="black"/>
<path d="M21.3314 21.8237C21.5033 21.7326 21.5688 21.5193 21.4777 21.3474C21.3866 21.1756 21.1735 21.11 21.0014 21.2012C20.1596 21.6474 19.2001 21.5294 18.7202 20.9205C18.4509 20.579 18.3583 20.1263 18.4594 19.6461C18.5653 19.1425 18.8684 18.6723 19.3126 18.3221C19.7568 17.9719 20.2849 17.7873 20.7992 17.8016C21.2898 17.8154 21.7083 18.0112 21.9776 18.3528C22.3819 18.8658 22.3768 19.6314 21.9645 20.3034C21.8627 20.4693 21.9146 20.6862 22.0805 20.7879C22.2463 20.8896 22.4632 20.8377 22.565 20.6719C23.1334 19.7455 23.12 18.664 22.5308 17.9167C22.13 17.4082 21.5221 17.1172 20.8191 17.0974C20.1398 17.0777 19.4501 17.3166 18.8765 17.7688C18.3028 18.221 17.9099 18.8362 17.7699 19.501C17.625 20.1892 17.766 20.8482 18.1668 21.3567C18.5889 21.892 19.2497 22.1737 19.9606 22.1736C20.4135 22.1736 20.8867 22.0594 21.3314 21.8237V21.8237Z" fill="black"/>
<path d="M28.1667 18.6644C28.1667 17.9341 27.4871 17.34 26.6517 17.34C25.8163 17.34 25.1366 17.9341 25.1366 18.6644C25.1366 19.3948 25.8163 19.9889 26.6517 19.9889C27.4871 19.9889 28.1667 19.3948 28.1667 18.6644ZM25.8412 18.6644C25.8412 18.3226 26.2048 18.0445 26.6518 18.0445C27.0987 18.0445 27.4623 18.3226 27.4623 18.6644C27.4623 19.0063 27.0987 19.2844 26.6518 19.2844C26.2048 19.2844 25.8412 19.0063 25.8412 18.6644Z" fill="black"/>
<path d="M24.0788 24.7188C24.0788 23.8238 23.3506 23.0956 22.4556 23.0956C21.5605 23.0956 20.8323 23.8238 20.8323 24.7188C20.8323 25.6139 21.5605 26.3421 22.4556 26.3421C23.3506 26.3421 24.0788 25.6139 24.0788 24.7188ZM21.5369 24.7188C21.5369 24.2123 21.949 23.8002 22.4556 23.8002C22.9622 23.8002 23.3743 24.2123 23.3743 24.7188C23.3743 25.2254 22.9622 25.6375 22.4556 25.6375C21.949 25.6375 21.5369 25.2254 21.5369 24.7188V24.7188Z" fill="black"/>
<path d="M28.6712 24.0567C28.6712 23.3607 28.1049 22.7944 27.4089 22.7944C26.7129 22.7944 26.1466 23.3607 26.1466 24.0567C26.1466 24.7527 26.7129 25.319 27.4089 25.319C28.1049 25.3189 28.6712 24.7527 28.6712 24.0567ZM26.8511 24.0567C26.8511 23.7491 27.1013 23.4989 27.4088 23.4989C27.7164 23.4989 27.9666 23.7491 27.9666 24.0567C27.9666 24.3643 27.7164 24.6145 27.4088 24.6145C27.1013 24.6144 26.8511 24.3643 26.8511 24.0567Z" fill="black"/>
<path d="M24.0481 29.7345C24.7302 29.7345 25.2851 29.1796 25.2851 28.4975C25.2851 27.8155 24.7302 27.2606 24.0481 27.2606C23.366 27.2606 22.8111 27.8155 22.8111 28.4975C22.8111 29.1796 23.366 29.7345 24.0481 29.7345ZM24.0481 27.9651C24.3417 27.9651 24.5806 28.2039 24.5806 28.4975C24.5806 28.7911 24.3417 29.03 24.0481 29.03C23.7545 29.03 23.5156 28.7911 23.5156 28.4975C23.5156 28.2039 23.7545 27.9651 24.0481 27.9651Z" fill="black"/>
<path d="M18.5122 27.6552C19.2147 27.6552 19.7861 27.0837 19.7861 26.3813C19.7861 25.6788 19.2147 25.1074 18.5122 25.1074C17.8098 25.1074 17.2383 25.6788 17.2383 26.3813C17.2383 27.0837 17.8098 27.6552 18.5122 27.6552ZM18.5122 25.8119C18.8262 25.8119 19.0816 26.0673 19.0816 26.3813C19.0816 26.6952 18.8262 26.9506 18.5122 26.9506C18.1983 26.9506 17.9429 26.6952 17.9429 26.3813C17.9429 26.0673 18.1983 25.8119 18.5122 25.8119Z" fill="black"/>
<path d="M25.6855 21.9726C25.6855 21.7781 25.5278 21.6203 25.3332 21.6203H25.0218C24.8272 21.6203 24.6696 21.7781 24.6696 21.9726C24.6696 22.1671 24.8272 22.3249 25.0218 22.3249H25.3332C25.5278 22.3249 25.6855 22.1671 25.6855 21.9726Z" fill="black"/>
<path d="M20.8647 28.4825H21.1846C21.3792 28.4825 21.5369 28.3248 21.5369 28.1302C21.5369 27.9357 21.3792 27.778 21.1846 27.778H20.8647C20.6701 27.778 20.5124 27.9357 20.5124 28.1302C20.5124 28.3248 20.6701 28.4825 20.8647 28.4825Z" fill="black"/>
<path d="M17.8988 23.3525C18.0934 23.3525 18.2511 23.1947 18.2511 23.0002C18.2511 22.8056 18.0934 22.6479 17.8988 22.6479H17.5906C17.396 22.6479 17.2383 22.8056 17.2383 23.0002C17.2383 23.1947 17.396 23.3525 17.5906 23.3525H17.8988Z" fill="black"/>
<path d="M24.1555 17.1893C24.35 17.1893 24.5077 17.0316 24.5077 16.837C24.5077 16.6425 24.35 16.4847 24.1555 16.4847H23.7265C23.5319 16.4847 23.3743 16.6425 23.3743 16.837C23.3743 17.0316 23.5319 17.1893 23.7265 17.1893H24.1555Z" fill="black"/>
<path d="M26.4988 26.6312C26.3043 26.6312 26.1466 26.7889 26.1466 26.9835C26.1466 27.178 26.3043 27.3357 26.4988 27.3357H26.9725C27.1671 27.3357 27.3248 27.178 27.3248 26.9835C27.3248 26.7889 27.1671 26.6312 26.9725 26.6312H26.4988Z" fill="black"/>
</g>
<defs>
<clipPath id="clip0">
<rect width="24" height="24" fill="white" transform="translate(11 11)"/>
</clipPath>
</defs>
</svg>
