<svg width="46" height="46" viewBox="0 0 46 46" fill="none" xmlns="http://www.w3.org/2000/svg">
<mask id="mask0" mask-type="alpha" maskUnits="userSpaceOnUse" x="0" y="0" width="46" height="46">
<circle cx="23" cy="23" r="23" fill="#34CC99"/>
</mask>
<g mask="url(#mask0)">
<circle cx="23" cy="23" r="23" fill="#34CC99"/>
<ellipse cx="16" cy="38" rx="6" ry="2" fill="#29AB7F"/>
<path d="M19.1892 32.6379C19.1892 34.7496 17.4771 36.4616 15.3655 36.4616C13.2538 36.4616 11.5418 34.7496 11.5418 32.6379C11.5418 30.526 13.2538 28.8142 15.3655 28.8142C17.4771 28.8142 19.1892 30.526 19.1892 32.6379Z" fill="#FF5555"/>
<path d="M15.3652 28.8142C17.4769 28.8142 19.1889 30.5263 19.1889 32.6379C19.1889 33.0016 19.1381 33.3541 19.0434 33.6874C18.5872 32.0859 17.1132 30.9129 15.3652 30.9129C13.6173 30.9129 12.1437 32.0859 11.6876 33.6874C11.593 33.3541 11.542 33.0016 11.542 32.6379C11.542 30.5263 13.2536 28.8142 15.3652 28.8142Z" fill="#F72B2B"/>
<path d="M23.4821 25.736L16.8319 32.3864C16.4964 32.7217 15.9525 32.7217 15.617 32.3864C15.2817 32.0509 15.2817 31.507 15.617 31.1715L22.2672 24.5213C22.6027 24.1858 23.1465 24.1858 23.4821 24.5213C23.8174 24.8569 23.8174 25.4007 23.4821 25.736Z" fill="#FE9D7F"/>
<path d="M20.0101 19.2248L13.3597 12.5747C13.0244 12.2391 13.0244 11.6953 13.3597 11.3598C13.6953 11.0244 14.2391 11.0244 14.5746 11.3598L21.2248 18.0102C21.5604 18.3455 21.5604 18.8893 21.2248 19.2248C20.8893 19.5604 20.3454 19.5604 20.0101 19.2248Z" fill="#FE9D7F"/>
<path d="M29.8429 22.6164C29.8429 26.0821 27.0334 28.8916 23.5676 28.8916C20.1019 28.8916 17.2922 26.0821 17.2922 22.6164C17.2922 19.1507 20.1019 16.3411 23.5676 16.3411C27.0334 16.3411 29.8429 19.1507 29.8429 22.6164Z" fill="#FF5555"/>
<path d="M29.8429 22.6162C29.8429 26.0817 27.0331 28.8914 23.5674 28.8914C22.9705 28.8914 22.3923 28.8079 21.8453 28.6525C24.4736 27.9038 26.3989 25.485 26.3989 22.6162C26.3989 19.7474 24.4736 17.329 21.8453 16.5806C22.3923 16.4251 22.9705 16.3414 23.5674 16.3414C27.0331 16.3414 29.8429 19.1504 29.8429 22.6162Z" fill="#F72B2B"/>
<path d="M34.8778 23.5878H25.4731C24.9986 23.5878 24.6141 23.2032 24.6141 22.7288C24.6141 22.2545 24.9986 21.8698 25.4731 21.8698H34.8778C35.3523 21.8698 35.7368 22.2545 35.7368 22.7288C35.7368 23.2032 35.3523 23.5878 34.8778 23.5878Z" fill="#FE9D7F"/>
<path d="M39.5605 22.6164C39.5605 24.728 37.8487 26.4401 35.7368 26.4401C33.6251 26.4401 31.9131 24.728 31.9131 22.6164C31.9131 20.5045 33.6251 18.7927 35.7368 18.7927C37.8487 18.7927 39.5605 20.5045 39.5605 22.6164Z" fill="#FF5555"/>
<path d="M39.5605 22.6161C39.5605 24.7278 37.8485 26.4398 35.7368 26.4398C35.3731 26.4398 35.0206 26.389 34.6876 26.2943C36.2889 25.8381 37.4619 24.3641 37.4619 22.6161C37.4619 20.8682 36.2889 19.3946 34.6876 18.9385C35.0206 18.8439 35.3731 18.7929 35.7368 18.7929C37.8485 18.7929 39.5605 20.5045 39.5605 22.6161Z" fill="#F72B2B"/>
<path d="M18.0868 12.2632C18.0868 14.3748 16.3748 16.0869 14.2631 16.0869C12.1512 16.0869 10.4394 14.3748 10.4394 12.2632C10.4394 10.1515 12.1512 8.43945 14.2631 8.43945C16.3748 8.43945 18.0868 10.1515 18.0868 12.2632Z" fill="#FF5555"/>
<path d="M18.0868 12.2629C18.0868 14.3746 16.3748 16.0866 14.2629 16.0866C13.8992 16.0866 13.547 16.0358 13.2137 15.9411C14.8152 15.4849 15.9882 14.0109 15.9882 12.2629C15.9882 10.515 14.8152 9.04143 13.2137 8.58527C13.547 8.49074 13.8992 8.4397 14.2629 8.4397C16.3748 8.4397 18.0868 10.1513 18.0868 12.2629Z" fill="#F72B2B"/>
<path d="M26.6452 27.5751C25.7231 28.1489 24.6588 28.4522 23.5677 28.4522C22.161 28.4522 20.8023 27.9447 19.7419 27.0233C18.6918 26.1109 18.0011 24.8551 17.7964 23.487C17.7605 23.2469 17.5369 23.0815 17.2968 23.1174C17.0567 23.1533 16.8912 23.3769 16.9271 23.617C17.1389 25.0322 17.8033 26.3419 18.8122 27.3547L17.3188 28.8481C16.7179 28.5382 16.0459 28.3748 15.3652 28.3748C13.0146 28.3748 11.1023 30.2871 11.1023 32.638C11.1023 34.9886 13.0146 36.9009 15.3652 36.9009C17.7161 36.9009 19.6284 34.9886 19.6284 32.638C19.6284 31.9561 19.465 31.286 19.1548 30.6847L21.0134 28.8262C21.8172 29.1567 22.684 29.3311 23.5675 29.3311C24.8229 29.3311 26.0479 28.9818 27.1096 28.3213C27.3156 28.1931 27.3788 27.9221 27.2506 27.7161C27.1225 27.5099 26.8515 27.4469 26.6452 27.5751ZM18.7497 32.638C18.7497 34.504 17.2316 36.0222 15.3655 36.0222C13.4994 36.0222 11.9812 34.504 11.9812 32.638C11.9812 30.7719 13.4994 29.2537 15.3655 29.2537C15.8102 29.2537 16.2501 29.3416 16.6575 29.5096L15.3064 30.8607C14.8001 31.367 14.8001 32.1907 15.3064 32.697C15.5516 32.9422 15.8777 33.0774 16.2245 33.0774C16.5712 33.0774 16.8974 32.9422 17.1425 32.697L18.4938 31.3457C18.6618 31.7533 18.7497 32.1923 18.7497 32.638ZM16.5211 32.0756C16.4417 32.1548 16.3364 32.1985 16.2245 32.1985C16.1123 32.1985 16.007 32.1548 15.9276 32.0756C15.8484 31.9964 15.8049 31.8911 15.8049 31.779C15.8049 31.6668 15.8484 31.5615 15.9276 31.4823L19.4725 27.9374C19.6994 28.1121 19.9362 28.2716 20.1816 28.4149L16.5211 32.0756Z" fill="black"/>
<path d="M36.8423 18.4988C36.6079 18.4361 36.3669 18.5752 36.3042 18.8096C36.2413 19.0442 36.3804 19.285 36.6148 19.3479C38.0904 19.7432 39.121 21.0872 39.121 22.6164C39.121 24.4824 37.6029 26.0006 35.7368 26.0006C33.8707 26.0006 32.3526 24.4824 32.3526 22.6164C32.3526 21.0957 33.3763 19.7535 34.8419 19.3525C35.076 19.2887 35.214 19.047 35.1499 18.8128C35.0859 18.5787 34.8442 18.4409 34.61 18.5047C33.1575 18.9021 32.05 20.0332 31.6433 21.4303H30.1775C29.6115 18.2592 26.8191 15.9017 23.5674 15.9017C22.4887 15.9017 21.4324 16.1621 20.4867 16.6506L18.0511 14.215C18.3539 13.6296 18.5261 12.9663 18.5261 12.2631C18.5261 9.91253 16.6135 8 14.2629 8C11.9123 8 10 9.91253 10 12.2631C10 14.6138 11.9125 16.5263 14.2631 16.5263C14.9663 16.5263 15.6296 16.3539 16.215 16.0511L18.4434 18.2795C17.673 19.19 17.1523 20.2937 16.95 21.4752C16.9088 21.7143 17.0697 21.9414 17.3089 21.9826C17.5481 22.0238 17.7751 21.8629 17.8161 21.6235C18.0456 20.2836 18.7456 19.0575 19.787 18.1708C20.8398 17.2743 22.1824 16.7806 23.5676 16.7806C26.3405 16.7806 28.7278 18.7531 29.2812 21.4303H25.4731C24.7571 21.4303 24.1746 22.0128 24.1746 22.7287C24.1746 23.4447 24.7571 24.0272 25.4731 24.0272H29.2315C29.0203 24.8757 28.6172 25.6719 28.0537 26.3487C27.8983 26.5353 27.9235 26.8122 28.11 26.9676C28.1922 27.0361 28.292 27.0695 28.3911 27.0695C28.517 27.0695 28.6419 27.0155 28.7289 26.9111C29.4242 26.0764 29.9072 25.0835 30.1336 24.0272H31.7149C32.2985 25.6864 33.8806 26.8795 35.7368 26.8795C38.0876 26.8795 39.9999 24.967 39.9999 22.6164C39.9999 20.6901 38.7015 18.9971 36.8423 18.4988ZM10.8789 12.2631C10.8789 10.3971 12.3971 8.8789 14.2631 8.8789C16.1292 8.8789 17.6474 10.3971 17.6474 12.2631C17.6474 14.1292 16.1292 15.6474 14.2631 15.6474C12.3971 15.6474 10.8789 14.1292 10.8789 12.2631ZM17.5581 14.9649L19.7121 17.1189C19.5418 17.2383 19.3766 17.3658 19.2171 17.5016C19.1614 17.5489 19.1076 17.5981 19.0536 17.6471L16.9649 15.5581C17.1814 15.3803 17.3803 15.1814 17.5581 14.9649ZM25.4731 23.1483C25.2417 23.1483 25.0535 22.9601 25.0535 22.7287C25.0535 22.4976 25.2417 22.3092 25.4731 22.3092H31.4856C31.4782 22.4111 31.4737 22.5134 31.4737 22.6164C31.4737 22.7967 31.4862 22.9739 31.5082 23.1483H25.4731Z" fill="black"/>
<path d="M20.8668 20.5445H20.873H20.8751C21.1168 20.5445 21.3134 20.3491 21.3145 20.1071C21.3157 19.8643 21.1198 19.6668 20.8771 19.6656H20.8707C20.87 19.6656 20.8694 19.6656 20.8687 19.6656C20.627 19.6656 20.4304 19.8611 20.4292 20.103C20.4283 20.3459 20.624 20.5434 20.8668 20.5445Z" fill="black"/>
<path d="M19.9978 20.6741H19.9914C19.9907 20.6741 19.99 20.6741 19.9893 20.6741C19.7476 20.6741 19.551 20.8695 19.5499 21.1117C19.5487 21.3543 19.7446 21.5521 19.9872 21.553H19.9937H19.9957C20.2374 21.553 20.434 21.3575 20.4352 21.1156C20.4363 20.873 20.2404 20.6752 19.9978 20.6741Z" fill="black"/>
<path d="M22.1955 21.553H22.1994C22.4402 21.553 22.6365 21.3589 22.6386 21.1176C22.6409 20.8748 22.4459 20.6764 22.2033 20.6743L22.1969 20.6741C22.1955 20.6741 22.1941 20.6741 22.1927 20.6741C21.952 20.6741 21.7556 20.8684 21.7535 21.1096C21.7512 21.3525 21.9462 21.5509 22.1891 21.553H22.1955Z" fill="black"/>
<path d="M35.1097 23.6053C35.1083 23.6053 35.1069 23.6053 35.1058 23.6053C34.8648 23.6053 34.6686 23.7994 34.6663 24.0407C34.6643 24.2835 34.8593 24.482 35.1019 24.484L35.1083 24.4843H35.1122C35.3532 24.4843 35.5496 24.2899 35.5516 24.0487C35.5537 23.8058 35.3587 23.6074 35.1161 23.6053H35.1097Z" fill="black"/>
<path d="M14.2682 32.6697H14.2618C14.2611 32.6697 14.2606 32.6697 14.26 32.6697C14.018 32.6697 13.8216 32.8652 13.8205 33.1071C13.8194 33.3497 14.0153 33.5475 14.2579 33.5486H14.2643H14.2664C14.5081 33.5486 14.7047 33.3532 14.7058 33.111C14.7067 32.8684 14.511 32.6707 14.2682 32.6697Z" fill="black"/>
</g>
</svg>
