<svg width="46" height="46" viewBox="0 0 46 46" fill="none" xmlns="http://www.w3.org/2000/svg">
<mask id="mask0" mask-type="alpha" maskUnits="userSpaceOnUse" x="0" y="0" width="46" height="46">
<circle cx="23" cy="23" r="23" fill="#34CC99"/>
</mask>
<g mask="url(#mask0)">
<circle cx="23" cy="23" r="23" fill="#34CC99"/>
<ellipse cx="22.5" cy="38" rx="11.5" ry="2" fill="#29AB7F"/>
<path d="M27.8622 10.4988C26.9632 10.4988 26.0738 10.6813 25.2474 11.0353C23.8125 11.6508 22.1875 11.6508 20.7526 11.0353C19.9262 10.6813 19.0368 10.4988 18.1378 10.4988C14.4726 10.4988 11.5013 13.4696 11.5008 17.1348C11.5008 17.1354 11.5008 17.1354 11.5008 17.1358C11.5008 19.9867 12.3017 22.7805 13.8127 25.1978L14.0006 25.4978L16.178 35.0782C16.3665 35.9081 17.1044 36.4971 17.9558 36.4971C18.8477 36.4976 19.6092 35.8531 19.7557 34.9737L21.2556 25.9773C21.3976 25.1243 22.135 24.4989 23 24.4979C23.8654 24.4979 24.6039 25.1233 24.7464 25.9773L26.2463 34.9737C26.3927 35.8527 27.1532 36.4966 28.0442 36.4971C28.8956 36.4971 29.6336 35.9081 29.822 35.0782L31.9993 25.4978L32.1873 25.1978C33.6982 22.7805 34.4992 19.9867 34.4992 17.1358C34.4997 13.4706 31.5284 10.4993 27.8632 10.4988C27.8627 10.4988 27.8627 10.4988 27.8622 10.4988Z" fill="#BBEFFF"/>
<path d="M29.5596 10.7263C26.6153 20.7331 18.6503 25.2579 14.3476 27.0248L16.1779 35.0777C16.4014 36.0596 17.3789 36.6741 18.3608 36.4506C19.0817 36.2866 19.6322 35.7032 19.7542 34.9737L21.2541 25.9773C21.4146 25.0128 22.3265 24.3609 23.2909 24.5214C24.0373 24.6454 24.6228 25.2308 24.7468 25.9773L26.2467 34.9737C26.4127 35.9672 27.3526 36.6376 28.346 36.4711C29.0755 36.3491 29.6589 35.7986 29.823 35.0777L31.9993 25.4979L32.1873 25.1979C33.6982 22.7805 34.4991 19.9867 34.4991 17.1359C34.4973 14.1266 32.4694 11.4952 29.5596 10.7263Z" fill="#BBEFFF"/>
<path d="M10.5009 11.4987C10.3299 10.4733 9.52644 9.66986 8.50099 9.49889C9.52644 9.32791 10.3299 8.52447 10.5009 7.49902C10.6718 8.52447 11.4753 9.32791 12.5007 9.49889C11.4753 9.66986 10.6718 10.4738 10.5009 11.4987Z" fill="#FF5555"/>
<path d="M14.5006 16.9984H13.5007C13.5007 14.3011 15.4006 13.2091 16.4005 13.0087L16.5965 13.9886L16.5005 13.4986L16.6005 13.9881C16.5154 14.0066 14.5006 14.4631 14.5006 16.9984Z" fill="#F7F7F7"/>
<path d="M18.4994 12.9986H17.4994V13.9986H18.4994V12.9986Z" fill="#F7F7F7"/>
<path d="M35.4992 32.4974C35.3282 31.4719 34.5247 30.6685 33.4993 30.4975C34.5247 30.3265 35.3282 29.5231 35.4992 28.4977C35.6701 29.5231 36.4736 30.3265 37.499 30.4975C36.4736 30.6685 35.6701 31.4725 35.4992 32.4974Z" fill="#FF5555"/>
<path d="M8.419 9.99186C9.23392 10.1279 9.87189 10.7663 10.0079 11.5813C10.0539 11.8537 10.3119 12.0367 10.5843 11.9907C10.7943 11.9552 10.9583 11.7907 10.9938 11.5813C11.1298 10.7664 11.7677 10.1279 12.5827 9.99186C12.8551 9.94586 13.0381 9.68788 12.9921 9.41542C12.9566 9.20542 12.7921 9.04141 12.5827 9.00596C11.7682 8.86997 11.1298 8.23153 10.9938 7.41655C10.9478 7.14456 10.6898 6.9611 10.4173 7.00709C10.2073 7.0426 10.0433 7.20708 10.0079 7.41655C9.87189 8.23147 9.23392 8.86997 8.419 9.00596C8.147 9.05249 7.96355 9.31042 8.00954 9.58241C8.04499 9.79241 8.20947 9.95635 8.419 9.99186ZM10.5008 8.78495C10.6958 9.06245 10.9373 9.30391 11.2148 9.49891C10.9373 9.69391 10.6958 9.93538 10.5008 10.2129C10.3058 9.93538 10.0644 9.69391 9.78687 9.49891C10.0644 9.30391 10.3058 9.06245 10.5008 8.78495Z" fill="black"/>
<path d="M13.3886 25.4618L13.5316 25.6913L15.6904 35.1907C15.9744 36.4416 17.2188 37.2256 18.4698 36.9421C19.3902 36.7331 20.0926 35.9881 20.2471 35.0572L21.747 26.0608C21.863 25.3683 22.5185 24.9014 23.2104 25.0173C23.7449 25.1068 24.1638 25.5258 24.2538 26.0608L25.7537 35.0567C25.9647 36.3226 27.1621 37.177 28.4275 36.9661C29.3575 36.8111 30.1019 36.1091 30.3109 35.1897L32.4693 25.6903L32.6122 25.4608C34.1731 22.9644 35.0001 20.0796 34.9991 17.1358C34.9996 13.1941 31.8043 9.99881 27.8625 9.99828C26.8956 9.99828 25.9386 10.1947 25.0497 10.5757C23.7403 11.1337 22.2594 11.1337 20.95 10.5757C17.3274 9.0224 13.1316 10.7003 11.5783 14.323C11.1973 15.212 11.0008 16.1689 11.0008 17.1358C10.9998 20.0807 11.8272 22.9655 13.3886 25.4618ZM18.1378 10.9988C18.9693 10.9978 19.7917 11.1668 20.5556 11.4948C22.117 12.1612 23.8829 12.1612 25.4443 11.4948C28.5601 10.1599 32.1679 11.6033 33.5033 14.7191C33.8308 15.483 33.9993 16.305 33.9993 17.1359C33.9998 19.8932 33.2253 22.5945 31.7634 24.9324L31.5754 25.2324C31.546 25.2799 31.5244 25.3319 31.5114 25.3863L29.3351 34.9667C29.1731 35.6797 28.4642 36.1256 27.7512 35.9636C27.2277 35.8446 26.8277 35.4206 26.7393 34.8912L25.2394 25.8953C25.0329 24.6584 23.863 23.8234 22.626 24.0299C21.6696 24.1894 20.9202 24.9389 20.7607 25.8953L19.2608 34.8917C19.1413 35.6127 18.4603 36.1002 17.7394 35.9806C17.2089 35.8926 16.7844 35.4921 16.6655 34.9677L14.4886 25.3869C14.4756 25.3324 14.4541 25.2804 14.4246 25.2329L14.2367 24.9329C12.7747 22.5951 12.0003 19.8932 12.0008 17.1359C12.0048 13.7481 14.7501 11.0028 18.1378 10.9988Z" fill="black"/>
<path d="M14.5006 16.9984C14.5006 14.463 16.5154 14.0066 16.6004 13.9881L16.5004 13.4986L16.4004 13.0086C15.4004 13.2091 13.5006 14.301 13.5006 16.9983H14.5006V16.9984Z" fill="black"/>
<path d="M18.4994 12.9986H17.4994V13.9986H18.4994V12.9986Z" fill="black"/>
<path d="M37.5811 30.0045C36.7661 29.8685 36.1282 29.2301 35.9922 28.4151C35.9462 28.1427 35.6882 27.9597 35.4157 28.0057C35.2057 28.0412 35.0417 28.2057 35.0063 28.4151C34.8703 29.23 34.2323 29.8685 33.4174 30.0045C33.1449 30.0505 32.9619 30.3085 33.0079 30.581C33.0434 30.791 33.2079 30.955 33.4174 30.9904C34.2323 31.1264 34.8703 31.7649 35.0063 32.5799C35.0523 32.8523 35.3103 33.0353 35.5827 32.9893C35.7927 32.9538 35.9567 32.7893 35.9922 32.5799C36.1282 31.7649 36.7661 31.1264 37.5811 30.9904C37.8535 30.9444 38.0365 30.6865 37.9905 30.414C37.955 30.2045 37.791 30.04 37.5811 30.0045ZM35.4992 31.2115C35.3042 30.934 35.0627 30.6925 34.7852 30.4975C35.0627 30.3025 35.3042 30.061 35.4992 29.7835C35.6942 30.061 35.9356 30.3025 36.2131 30.4975C35.9356 30.6925 35.6942 30.934 35.4992 31.2115Z" fill="black"/>
</g>
</svg>
