<svg width="90" height="57" viewBox="0 0 90 57" fill="none" xmlns="http://www.w3.org/2000/svg">
<path d="M4 10.229H49.0884C51.2423 10.229 52.9884 11.9751 52.9884 14.129V42.7399C52.9884 44.8939 51.2465 46.6399 49.0927 46.6399H49.0377H48.9825H48.9273H48.872H48.8166H48.7611H48.7056H48.65H48.5943H48.5385H48.4827H48.4268H48.3708H48.3148H48.2587H48.2025H48.1462H48.0899H48.0335H47.977H47.9204H47.8638H47.8072H47.7504H47.6936H47.6367H47.5798H47.5228H47.4657H47.4086H47.3514H47.2941H47.2368H47.1794H47.122H47.0645H47.0069H46.9493H46.8916H46.8339H46.7761H46.7182H46.6603H46.6024H46.5443H46.4863H46.4281H46.37H46.3117H46.2534H46.1951H46.1367H46.0783H46.0198H45.9612H45.9026H45.844H45.7853H45.7266H45.6678H45.609H45.5501H45.4912H45.4322H45.3732H45.3141H45.255H45.1959H45.1367H45.0775H45.0182H44.9589H44.8996H44.8402H44.7808H44.7213H44.6618H44.6023H44.5427H44.4831H44.4234H44.3637H44.304H44.2443H44.1845H44.1247H44.0648H44.0049H43.945H43.8851H43.8251H43.7651H43.7051H43.645H43.5849H43.5248H43.4646H43.4045H43.3443H43.284H43.2238H43.1635H43.1032H43.0429H42.9826H42.9222H42.8618H42.8014H42.741H42.6805H42.6201H42.5596H42.4991H42.4386H42.378H42.3175H42.2569H42.1963H42.1357H42.0751H42.0145H41.9538H41.8932H41.8325H41.7718H41.7111H41.6504H41.5897H41.529H41.4682H41.4075H41.3467H41.286H41.2252H41.1645H41.1037H41.0429H40.9821H40.9213H40.8605H40.7997H40.7389H40.6781H40.6173H40.5565H40.4957H40.4349H40.3741H40.3133H40.2525H40.1917H40.1309H40.0701H40.0093H39.9486H39.8878H39.827H39.7662H39.7055H39.6447H39.584H39.5233H39.4625H39.4018H39.3411H39.2804H39.2197H39.159H39.0984H39.0377H38.9771H38.9165H38.8559H38.7953H38.7347H38.6741H38.6136H38.553H38.4925H38.432H38.3716H38.3111H38.2507H38.1903H38.1299H38.0695H38.0091H37.9488H37.8885H37.8282H37.768H37.7077H37.6475H37.5873H37.5272H37.467H37.4069H37.3469H37.2868H37.2268H37.1668H37.1069H37.0469H36.987H36.9272H36.8673H36.8075H36.7478H36.688H36.6283H36.5687H36.5091H36.4495H36.3899H36.3304H36.2709H36.2115H36.1521H36.0927H36.0334H35.9741H35.9149H35.8557H35.7965H35.7374H35.6783H35.6193H35.5603H35.5013H35.4425H35.3836H35.3248H35.266H35.2073H35.1487H35.0901H35.0315H34.973H34.9145H34.8561H34.7977H34.7394H34.6812H34.623H34.5648H34.5067H34.4487H34.3907H34.3328H34.2749H34.2171H34.1593H34.1016H34.044H33.9864H33.9288H33.8714H33.814H33.7566H33.6993H33.6421H33.585H33.5279H33.4708H33.4139H33.357H33.3001H33.2433H33.1866H33.13H33.0734H33.0169H32.9605H32.9041H32.8478H32.7916H32.7355H32.6794H32.6234H32.5674H32.5116H32.4558H32.4H32.3444H32.2888H32.2333H32.1779H32.1226H32.0673H32.0121H31.957H31.902H31.8471H31.7922H31.7374H31.6827H31.6281H31.5735H31.5191H31.4647H31.4104H31.3562H31.3021H31.2481H31.1941H31.1402H31.0865H31.0328H30.9792H30.9257H30.8722H30.8189H30.7657H30.7125H30.6595H30.6065H30.5536H30.5008H30.4481H30.3956H30.3431H30.2907H30.2383H30.1861H30.134H30.082H30.0301H29.9783H29.9265H29.8749H29.8234H29.772H29.7207H29.6694H29.6183H29.5673H29.5164H29.4656H29.4149H29.3643H29.3138H29.2634H29.2131H29.163H29.1129H29.063H29.0131H28.9634H28.9138H28.8642H28.8148H28.7655H28.7164H28.6673H28.6183H28.5695H28.5208H28.4722H28.4237H28.3753H28.327H28.2789H28.2309H28.1829H28.1352H28.0875H28.0399H27.9925H27.9452H27.898H27.8509H27.804H27.7572H27.7105H27.6639H27.6174H27.5711H27.5249H27.4788H27.4329H27.3871H27.3414H27.2958H27.2504H27.2051H27.1599H27.1149H27.07H27.0252H26.9805H26.936H26.8916H26.8474H26.8033H26.7593H26.7154H26.6717H26.6282H26.5847H26.5414H26.4983H26.4553H26.4124H26.3696H26.327H26.2846H26.2423H26.2001H26.1581H26.1162H26.0744H26.0328H25.9914H25.9501H25.9089H25.8679H25.827H25.7863H25.7457H25.7053H25.665H25.6249H25.5849H25.5451H25.5054H25.4659H25.4265H25.3873H25.3482H25.3093H25.2706H25.232H25.1935H25.1552H25.1171H25.0791H25.0413H25.0036H24.9661H24.9288H24.8916H24.8546H24.8177H24.781H24.7445H24.7081H24.6719H24.6359H24.6H24.5643H24.5287H24.4933H24.4581H24.4231H24.3882H24.3535H24.3189H24.2845H24.2503H24.2163H24.1824H24.1487H24.1152H24.0819H24.0487H24.0157H23.9828H23.9502H23.9177H23.8854H23.8533H23.8213H23.7895H23.7579H23.7265H23.6953H23.6642H23.6334H23.6027H23.5721H23.5418H23.5116H23.4817H23.4519H23.4223H23.3929H23.3636H23.3346H23.3057H23.277H23.2486H23.2203H23.1921H23.1642H23.1365H23.1089H23.0816H23.0544H23.0275H23.0007H22.9741H22.9477H22.9215H22.8955H22.8697H22.8441H22.8187H22.7934H22.7684H22.7436H22.7189H22.6945C21.7933 46.6399 20.9362 46.942 20.2348 47.5079C20.0031 47.6949 19.7398 47.9073 19.4511 48.1404C17.8229 49.4547 15.3845 51.423 13.2235 53.1467C11.9514 54.1614 10.7759 55.091 9.9186 55.7523C9.48978 56.0832 9.14141 56.3462 8.90063 56.5191C8.81166 56.583 8.73841 56.6339 8.68174 56.671V56.6657V56.658V56.6502V56.6422V56.6341V56.6259V56.6175V56.609V56.6004V56.5917V56.5828V56.5738V56.5647V56.5554V56.546V56.5365V56.5269V56.5171V56.5072V56.4972V56.4871V56.4769V56.4665V56.456V56.4454V56.4347V56.4238V56.4128V56.4018V56.3906V56.3792V56.3678V56.3562V56.3446V56.3328V56.3209V56.3089V56.2967V56.2845V56.2721V56.2597V56.2471V56.2344V56.2216V56.2087V56.1956V56.1825V56.1693V56.1559V56.1425V56.1289V56.1152V56.1015V56.0876V56.0736V56.0595V56.0453V56.031V56.0166V56.0021V55.9875V55.9728V55.958V55.9431V55.928V55.9129V55.8977V55.8824V55.867V55.8515V55.8359V55.8202V55.8044V55.7885V55.7726V55.7565V55.7403V55.724V55.7077V55.6912V55.6747V55.6581V55.6414V55.6245V55.6076V55.5906V55.5736V55.5564V55.5392V55.5218V55.5044V55.4869V55.4693V55.4516V55.4338V55.416V55.398V55.38V55.3619V55.3437V55.3255V55.3071V55.2887V55.2702V55.2516V55.2329V55.2142V55.1954V55.1765V55.1575V55.1384V55.1193V55.1001V55.0808V55.0615V55.0421V55.0226V55.003V54.9833V54.9636V54.9438V54.924V54.9041V54.8841V54.864V54.8439V54.8237V54.8034V54.7831V54.7627V54.7422V54.7217V54.7011V54.6804V54.6597V54.6389V54.618V54.5971V54.5761V54.5551V54.534V54.5128V54.4916V54.4703V54.449V54.4276V54.4062V54.3847V54.3631V54.3415V54.3198V54.2981V54.2763V54.2544V54.2325V54.2106V54.1886V54.1665V54.1444V54.1223V54.1001V54.0778V54.0555V54.0331V54.0107V53.9883V53.9658V53.9432V53.9207V53.898V53.8753V53.8526V53.8298V53.807V53.7842V53.7613V53.7383V53.7153V53.6923V53.6692V53.6461V53.623V53.5998V53.5766V53.5533V53.53V53.5067V53.4833V53.4599V53.4364V53.413V53.3895V53.3659V53.3423V53.3187V53.2951V53.2714V53.2477V53.2239V53.2002V53.1764V53.1525V53.1287V53.1048V53.0809V53.0569V53.0329V53.0089V52.9849V52.9609V52.9368V52.9127V52.8886V52.8644V52.8403V52.8161V52.7919V52.7676V52.7434V52.7191V52.6948V52.6705V52.6462V52.6218V52.5975V52.5731V52.5487V52.5243V52.4999V52.4754V52.451V52.4265V52.402V52.3775V52.353V52.3285V52.3039V52.2794V52.2548V52.2303V52.2057V52.1811V52.1565V52.1319V52.1073V52.0827V52.0581V52.0335V52.0088V51.9842V51.9596V51.9349V51.9103V51.8856V51.861V51.8363V51.8117V51.787V51.7624V51.7377V51.7131V51.6884V51.6638V51.6391V51.6145V51.5899V51.5652V51.5406V51.516V51.4914V51.4668V51.4422V51.4176V51.393V51.3684V51.3438V51.3193V51.2947V51.2702V51.2456V51.2211V51.1966V51.1721V51.1476V51.1231V51.0987V51.0742V51.0498V51.0254V51.001V50.9766V50.9523V50.9279V50.9036V50.8793V50.855V50.8307V50.8065V50.7823V50.7581V50.7339V50.7097V50.6856V50.6615V50.6374V50.6133V50.5893V50.5652V50.5412V50.5173V50.4933V50.4694V50.4455V50.4217V50.3979V50.3741V50.3503V50.3266V50.3029V50.2792V50.2555V50.2319V50.2084V50.1848V50.1613V50.1378V50.1144V50.091V50.0676V50.0443V50.021V49.9977V49.9745V49.9513V49.9282V49.9051V49.882V49.859V49.836V49.8131V49.7902V49.7674V49.7446V49.7218V49.6991V49.6764V49.6538V49.6312V49.6086V49.5862V49.5637V49.5413V49.519V49.4967V49.4744V49.4522V49.4301V49.408V49.3859V49.3639V49.342V49.3201V49.2983V49.2765V49.2548V49.2331V49.2115V49.1899V49.1684V49.147V49.1256V49.1043V49.083V49.0618V49.0407V49.0196V48.9986V48.9776V48.9567V48.9358V48.9151V48.8943V48.8737V48.8531V48.8326V48.8121V48.7917V48.7714V48.7512V48.731V48.7108V48.6908V48.6708V48.6509V48.6311V48.6113V48.5916V48.5719V48.5524V48.5329V48.5135V48.4942V48.4749V48.4557V48.4366V48.4175V48.3986V48.3797V48.3609V48.3422V48.3235V48.3049V48.2864V48.268V48.2497V48.2315V48.2133V48.1952V48.1772V48.1593V48.1414V48.1237V48.106V48.0884V48.0709V48.0535V48.0362V48.0189V48.0018V47.9847V47.9677V47.9509V47.9341V47.9174V47.9007V47.8842V47.8678V47.8514V47.8352V47.819V47.803V47.787V47.7711V47.7554V47.7397V47.7241V47.7086V47.6932V47.6779V47.6628V47.6477V47.6327V47.6178V47.603V47.5883V47.5737V47.5592V47.5448V47.5305V47.5164V47.5023V47.4883V47.4745V47.4607V47.447V47.4335V47.4201V47.4067V47.3935V47.3804V47.3674V47.3545V47.3417V47.329V47.3165V47.304V47.2917V47.2795V47.2673V47.2554V47.2435V47.2317V47.2201V47.2085C8.68174 46.8906 8.42377 46.6399 8.10844 46.6399H4C1.84609 46.6399 0.1 44.8938 0.1 42.7399V14.129C0.1 11.9751 1.84609 10.229 4 10.229Z" fill="#48A083" stroke="#EAE2E2" stroke-width="0.2"/>
<rect width="5.61735" height="19.8146" rx="2.80868" transform="matrix(-1 0 0 1 29.2826 18.5104)" fill="white"/>
<rect width="5.6613" height="19.6607" rx="2.83065" transform="matrix(0 -1 -1 0 36.3043 31.2483)" fill="white"/>
<path d="M85.463 0.1H40.3746C38.2207 0.1 36.4746 1.84609 36.4746 4V32.6109C36.4746 34.7649 38.2165 36.5109 40.3703 36.5109H40.4253H40.4805H40.5357H40.591H40.6464H40.7019H40.7574H40.813H40.8687H40.9245H40.9803H41.0362H41.0922H41.1482H41.2044H41.2606H41.3168H41.3732H41.4296H41.486H41.5426H41.5992H41.6559H41.7126H41.7694H41.8263H41.8832H41.9402H41.9973H42.0544H42.1116H42.1689H42.2262H42.2836H42.341H42.3985H42.4561H42.5137H42.5714H42.6291H42.6869H42.7448H42.8027H42.8606H42.9187H42.9767H43.0349H43.0931H43.1513H43.2096H43.2679H43.3263H43.3847H43.4432H43.5018H43.5604H43.619H43.6777H43.7364H43.7952H43.854H43.9129H43.9718H44.0308H44.0898H44.1489H44.208H44.2671H44.3263H44.3855H44.4448H44.5041H44.5634H44.6228H44.6823H44.7417H44.8012H44.8608H44.9203H44.9799H45.0396H45.0993H45.159H45.2188H45.2785H45.3384H45.3982H45.4581H45.518H45.5779H45.6379H45.6979H45.758H45.818H45.8781H45.9382H45.9984H46.0585H46.1187H46.179H46.2392H46.2995H46.3598H46.4201H46.4804H46.5408H46.6012H46.6616H46.722H46.7825H46.8429H46.9034H46.9639H47.0245H47.085H47.1456H47.2061H47.2667H47.3273H47.3879H47.4486H47.5092H47.5699H47.6305H47.6912H47.7519H47.8126H47.8733H47.934H47.9948H48.0555H48.1163H48.177H48.2378H48.2986H48.3593H48.4201H48.4809H48.5417H48.6025H48.6633H48.7241H48.7849H48.8457H48.9065H48.9673H49.0281H49.0889H49.1497H49.2105H49.2713H49.3321H49.3929H49.4537H49.5145H49.5752H49.636H49.6968H49.7575H49.8183H49.879H49.9398H50.0005H50.0612H50.1219H50.1826H50.2433H50.304H50.3646H50.4253H50.4859H50.5465H50.6072H50.6678H50.7283H50.7889H50.8494H50.91H50.9705H51.031H51.0914H51.1519H51.2123H51.2728H51.3331H51.3935H51.4539H51.5142H51.5745H51.6348H51.6951H51.7553H51.8155H51.8757H51.9358H51.996H52.0561H52.1161H52.1762H52.2362H52.2962H52.3562H52.4161H52.476H52.5358H52.5957H52.6555H52.7152H52.775H52.8347H52.8943H52.954H53.0135H53.0731H53.1326H53.1921H53.2515H53.3109H53.3703H53.4296H53.4889H53.5482H53.6074H53.6665H53.7256H53.7847H53.8437H53.9027H53.9617H54.0206H54.0794H54.1382H54.197H54.2557H54.3143H54.373H54.4315H54.49H54.5485H54.6069H54.6653H54.7236H54.7818H54.84H54.8982H54.9563H55.0143H55.0723H55.1302H55.1881H55.2459H55.3037H55.3614H55.4191H55.4766H55.5342H55.5916H55.649H55.7064H55.7637H55.8209H55.8781H55.9352H55.9922H56.0492H56.1061H56.1629H56.2197H56.2764H56.333H56.3896H56.4461H56.5025H56.5589H56.6152H56.6714H56.7276H56.7836H56.8397H56.8956H56.9515H57.0072H57.063H57.1186H57.1742H57.2297H57.2851H57.3404H57.3957H57.4509H57.506H57.561H57.6159H57.6708H57.7256H57.7803H57.8349H57.8895H57.9439H57.9983H58.0526H58.1068H58.1609H58.215H58.2689H58.3228H58.3765H58.4302H58.4838H58.5373H58.5908H58.6441H58.6973H58.7505H58.8036H58.8565H58.9094H58.9622H59.0149H59.0675H59.12H59.1724H59.2247H59.2769H59.329H59.381H59.4329H59.4848H59.5365H59.5881H59.6396H59.691H59.7424H59.7936H59.8447H59.8957H59.9466H59.9974H60.0481H60.0987H60.1492H60.1996H60.2499H60.3H60.3501H60.4H60.4499H60.4996H60.5493H60.5988H60.6482H60.6975H60.7466H60.7957H60.8447H60.8935H60.9422H60.9908H61.0393H61.0877H61.136H61.1841H61.2322H61.2801H61.3279H61.3755H61.4231H61.4705H61.5178H61.565H61.6121H61.659H61.7059H61.7526H61.7991H61.8456H61.8919H61.9381H61.9842H62.0301H62.0759H62.1216H62.1672H62.2126H62.2579H62.3031H62.3481H62.3931H62.4378H62.4825H62.527H62.5714H62.6156H62.6597H62.7037H62.7476H62.7913H62.8348H62.8783H62.9216H62.9647H63.0077H63.0506H63.0934H63.136H63.1784H63.2207H63.2629H63.3049H63.3468H63.3886H63.4302H63.4716H63.5129H63.5541H63.5951H63.636H63.6767H63.7173H63.7577H63.798H63.8381H63.8781H63.9179H63.9576H63.9971H64.0365H64.0757H64.1148H64.1537H64.1925H64.2311H64.2695H64.3078H64.3459H64.3839H64.4217H64.4594H64.4969H64.5342H64.5714H64.6084H64.6453H64.682H64.7185H64.7549H64.7911H64.8271H64.863H64.8987H64.9343H64.9697H65.0049H65.04H65.0748H65.1096H65.1441H65.1785H65.2127H65.2467H65.2806H65.3143H65.3478H65.3812H65.4143H65.4473H65.4802H65.5128H65.5453H65.5776H65.6097H65.6417H65.6735H65.7051H65.7365H65.7677H65.7988H65.8297H65.8604H65.8909H65.9212H65.9514H65.9813H66.0111H66.0407H66.0701H66.0994H66.1284H66.1573H66.186H66.2145H66.2428H66.2709H66.2988H66.3265H66.3541H66.3814H66.4086H66.4356H66.4623H66.4889H66.5153H66.5415H66.5675H66.5933H66.6189H66.6444H66.6696H66.6946H66.7194H66.7441H66.7685C67.6697 36.5109 68.5268 36.813 69.2283 37.3789C69.46 37.5658 69.7232 37.7783 70.0119 38.0113C71.6401 39.3257 74.0785 41.294 76.2395 43.0177C77.5116 44.0324 78.6871 44.962 79.5444 45.6233C79.9732 45.9541 80.3216 46.2172 80.5624 46.3901C80.6514 46.454 80.7246 46.5048 80.7813 46.542V46.5367V46.529V46.5211V46.5132V46.5051V46.4968V46.4885V46.48V46.4714V46.4626V46.4538V46.4448V46.4356V46.4264V46.417V46.4075V46.3978V46.3881V46.3782V46.3682V46.3581V46.3478V46.3375V46.327V46.3164V46.3056V46.2948V46.2838V46.2727V46.2615V46.2502V46.2388V46.2272V46.2155V46.2038V46.1918V46.1798V46.1677V46.1555V46.1431V46.1306V46.1181V46.1054V46.0926V46.0796V46.0666V46.0535V46.0402V46.0269V46.0134V45.9999V45.9862V45.9724V45.9585V45.9446V45.9305V45.9163V45.902V45.8876V45.8731V45.8585V45.8437V45.8289V45.814V45.799V45.7839V45.7687V45.7534V45.738V45.7225V45.7069V45.6912V45.6754V45.6595V45.6435V45.6275V45.6113V45.595V45.5787V45.5622V45.5457V45.529V45.5123V45.4955V45.4786V45.4616V45.4445V45.4274V45.4101V45.3928V45.3754V45.3578V45.3402V45.3226V45.3048V45.2869V45.269V45.251V45.2329V45.2147V45.1964V45.1781V45.1596V45.1411V45.1226V45.1039V45.0851V45.0663V45.0474V45.0285V45.0094V44.9903V44.9711V44.9518V44.9324V44.913V44.8935V44.874V44.8543V44.8346V44.8148V44.795V44.775V44.755V44.735V44.7148V44.6946V44.6744V44.654V44.6336V44.6132V44.5926V44.572V44.5514V44.5306V44.5099V44.489V44.4681V44.4471V44.4261V44.405V44.3838V44.3626V44.3413V44.32V44.2986V44.2771V44.2556V44.2341V44.2124V44.1908V44.169V44.1472V44.1254V44.1035V44.0816V44.0596V44.0375V44.0154V43.9932V43.971V43.9488V43.9265V43.9041V43.8817V43.8593V43.8368V43.8142V43.7916V43.769V43.7463V43.7236V43.7008V43.678V43.6551V43.6322V43.6093V43.5863V43.5633V43.5402V43.5171V43.494V43.4708V43.4476V43.4243V43.401V43.3777V43.3543V43.3309V43.3074V43.2839V43.2604V43.2369V43.2133V43.1897V43.166V43.1423V43.1186V43.0949V43.0711V43.0473V43.0235V42.9996V42.9757V42.9518V42.9279V42.9039V42.8799V42.8559V42.8318V42.8078V42.7837V42.7596V42.7354V42.7112V42.6871V42.6628V42.6386V42.6144V42.5901V42.5658V42.5415V42.5172V42.4928V42.4685V42.4441V42.4197V42.3953V42.3708V42.3464V42.3219V42.2975V42.273V42.2485V42.224V42.1994V42.1749V42.1504V42.1258V42.1012V42.0767V42.0521V42.0275V42.0029V41.9783V41.9537V41.9291V41.9044V41.8798V41.8552V41.8305V41.8059V41.7813V41.7566V41.732V41.7073V41.6827V41.658V41.6334V41.6087V41.5841V41.5594V41.5348V41.5101V41.4855V41.4608V41.4362V41.4116V41.387V41.3623V41.3377V41.3131V41.2885V41.2639V41.2394V41.2148V41.1902V41.1657V41.1411V41.1166V41.0921V41.0676V41.0431V41.0186V40.9941V40.9697V40.9452V40.9208V40.8964V40.872V40.8476V40.8232V40.7989V40.7746V40.7503V40.726V40.7017V40.6775V40.6532V40.629V40.6049V40.5807V40.5566V40.5324V40.5083V40.4843V40.4602V40.4362V40.4122V40.3883V40.3643V40.3404V40.3165V40.2927V40.2688V40.245V40.2213V40.1975V40.1738V40.1502V40.1265V40.1029V40.0793V40.0558V40.0323V40.0088V39.9854V39.962V39.9386V39.9153V39.892V39.8687V39.8455V39.8223V39.7992V39.7761V39.753V39.73V39.707V39.6841V39.6612V39.6383V39.6155V39.5928V39.57V39.5474V39.5247V39.5022V39.4796V39.4571V39.4347V39.4123V39.3899V39.3676V39.3454V39.3232V39.3011V39.279V39.2569V39.2349V39.213V39.1911V39.1693V39.1475V39.1258V39.1041V39.0825V39.0609V39.0394V39.018V38.9966V38.9753V38.954V38.9328V38.9116V38.8906V38.8695V38.8486V38.8277V38.8068V38.786V38.7653V38.7447V38.7241V38.7036V38.6831V38.6627V38.6424V38.6221V38.6019V38.5818V38.5618V38.5418V38.5219V38.502V38.4823V38.4626V38.4429V38.4234V38.4039V38.3845V38.3651V38.3459V38.3267V38.3076V38.2885V38.2696V38.2507V38.2319V38.2131V38.1945V38.1759V38.1574V38.139V38.1207V38.1024V38.0843V38.0662V38.0482V38.0302V38.0124V37.9946V37.977V37.9594V37.9419V37.9245V37.9071V37.8899V37.8728V37.8557V37.8387V37.8218V37.805V37.7883V37.7717V37.7552V37.7388V37.7224V37.7062V37.69V37.674V37.658V37.6421V37.6263V37.6107V37.5951V37.5796V37.5642V37.5489V37.5337V37.5186V37.5036V37.4887V37.474V37.4593V37.4447V37.4302V37.4158V37.4015V37.3873V37.3733V37.3593V37.3454V37.3317V37.318V37.3045V37.291V37.2777V37.2645V37.2514V37.2384V37.2255V37.2127V37.2V37.1874V37.175V37.1627V37.1504V37.1383V37.1263V37.1144V37.1027V37.091V37.0795C80.7813 36.7616 81.0392 36.5109 81.3546 36.5109H85.463C87.6169 36.5109 89.363 34.7648 89.363 32.6109V4C89.363 1.84609 87.6169 0.1 85.463 0.1Z" fill="#48A083" stroke="#EAE2E2" stroke-width="0.2"/>
<ellipse cx="72.415" cy="19.1069" rx="3.51084" ry="3.53831" fill="white"/>
<ellipse cx="62.5846" cy="19.1069" rx="3.51084" ry="3.53831" fill="white"/>
<ellipse cx="52.754" cy="19.1069" rx="3.51084" ry="3.53831" fill="white"/>
</svg>
